<svg width="325.000000" height="12.000000" viewBox="0 0 325 12" fill="none" xmlns="http://www.w3.org/2000/svg" xmlns:xlink="http://www.w3.org/1999/xlink">
	<desc>
			Created with Pixso.
	</desc>
	<defs/>
	<path id="Сайт Концертно - экскурсионных программ" d="M18.92 0.62Q18.92 0.46 18.98 0.34Q19.02 0.25 19.09 0.18Q19.18 0.09 19.28 0.04L19.28 0.04Q19.39 0 19.52 0C19.66 0 19.78 0.03 19.88 0.11Q20.02 0.23 20.25 0.68C20.46 1.08 20.69 1.28 20.94 1.28C21.19 1.28 21.42 1.08 21.63 0.68Q21.83 0.29 21.97 0.15C22.08 0.05 22.21 0 22.36 0C22.53 0 22.67 0.06 22.78 0.18Q22.85 0.26 22.89 0.35Q22.94 0.47 22.94 0.62C22.94 0.96 22.75 1.22 22.36 1.4C21.97 1.57 21.5 1.66 20.96 1.66C20.37 1.66 19.88 1.57 19.49 1.39Q19.09 1.2 18.97 0.9Q18.92 0.77 18.92 0.62ZM26.7 1.85L27.07 1.85C27.1 1.89 27.12 1.93 27.13 1.95C27.24 2.15 27.32 2.28 27.38 2.34Q27.46 2.37 28.19 2.37Q28.65 2.37 29 2.36L29.12 2.34L29.84 2.33L31.17 2.35L33 2.35L33.35 2.29Q33.43 2.23 33.51 1.99C33.53 1.95 33.55 1.9 33.58 1.83L33.84 1.83C33.88 1.83 33.94 1.83 34.02 1.83C34.02 2.12 34.02 2.56 34.02 3.14L34.03 3.69L34.02 4.01C34.02 4.12 34.01 4.21 34 4.29C33.84 4.35 33.7 4.38 33.57 4.39C33.47 4.23 33.36 4 33.24 3.69C33.12 3.38 33.04 3.21 33.01 3.17C32.96 3.12 32.91 3.08 32.85 3.07Q32.7 3.04 31.59 3.04C31.48 3.04 31.34 3.04 31.18 3.06C31.16 3.22 31.14 3.36 31.14 3.46L31.15 4.3L31.15 6.14L31.17 8.12L31.17 8.94C31.17 9.22 31.19 9.44 31.24 9.59C31.3 9.62 31.42 9.64 31.59 9.67C31.62 9.67 31.76 9.71 32.02 9.77C32.14 9.8 32.25 9.83 32.34 9.87C32.36 10.02 32.37 10.11 32.37 10.14C32.37 10.18 32.36 10.23 32.35 10.31C32.26 10.31 32.19 10.31 32.14 10.31C31.73 10.31 31.39 10.3 31.1 10.27Q30.68 10.22 29.56 10.22C29.44 10.22 29.09 10.24 28.52 10.29Q28.18 10.32 28.08 10.32C28.08 10.26 28.07 10.21 28.07 10.17L28.06 10.03L28.06 9.98C28.15 9.86 28.31 9.77 28.55 9.71C28.96 9.61 29.25 9.51 29.41 9.43C29.45 9.35 29.47 9.25 29.48 9.12Q29.52 8.37 29.52 6.73L29.49 4.36C29.49 3.71 29.48 3.32 29.45 3.18C29.45 3.14 29.43 3.11 29.41 3.1C29.39 3.08 29.36 3.06 29.33 3.06C29.21 3.04 28.81 3.04 28.13 3.04C27.76 3.04 27.52 3.07 27.39 3.15C27.22 3.25 26.97 3.54 26.63 4C26.53 4.13 26.46 4.2 26.41 4.2C26.23 4.1 26.11 4.02 26.06 3.96C26.18 3.68 26.35 3.14 26.57 2.33C26.63 2.09 26.68 1.93 26.7 1.85ZM93.19 1.85L93.55 1.85C93.58 1.89 93.6 1.93 93.61 1.95C93.72 2.15 93.81 2.28 93.87 2.34C93.92 2.36 94.19 2.37 94.68 2.37C94.98 2.37 95.25 2.36 95.49 2.36L95.6 2.34L96.32 2.33L97.66 2.35L99.48 2.35L99.83 2.29C99.88 2.25 99.94 2.15 100 1.99C100.01 1.95 100.03 1.9 100.06 1.83L100.32 1.83C100.36 1.83 100.42 1.83 100.5 1.83C100.5 2.12 100.51 2.56 100.51 3.14L100.51 3.69L100.51 4.01C100.51 4.12 100.5 4.21 100.48 4.29C100.32 4.35 100.18 4.38 100.06 4.39C99.95 4.23 99.84 4 99.72 3.69C99.6 3.38 99.53 3.21 99.49 3.17C99.45 3.12 99.39 3.08 99.33 3.07C99.23 3.05 98.82 3.04 98.08 3.04C97.97 3.04 97.83 3.04 97.66 3.06C97.64 3.22 97.63 3.36 97.63 3.46L97.63 4.3L97.63 6.14L97.66 8.12L97.65 8.94C97.65 9.22 97.67 9.44 97.72 9.59C97.78 9.62 97.9 9.64 98.07 9.67C98.1 9.67 98.25 9.71 98.51 9.77C98.63 9.8 98.73 9.83 98.82 9.87C98.84 10.02 98.85 10.11 98.85 10.14C98.85 10.18 98.84 10.23 98.83 10.31Q98.7 10.31 98.62 10.31C98.21 10.31 97.87 10.3 97.58 10.27C97.3 10.23 96.79 10.22 96.04 10.22Q95.86 10.22 95 10.29C94.78 10.31 94.63 10.32 94.56 10.32C94.56 10.26 94.56 10.21 94.55 10.17L94.55 10.03L94.55 9.98C94.63 9.86 94.8 9.77 95.04 9.71C95.45 9.61 95.73 9.51 95.89 9.43C95.93 9.35 95.95 9.25 95.96 9.12C95.99 8.62 96 7.82 96 6.73L95.97 4.36C95.97 3.71 95.96 3.32 95.94 3.18C95.93 3.14 95.91 3.11 95.89 3.1C95.87 3.08 95.85 3.06 95.81 3.06C95.69 3.04 95.29 3.04 94.62 3.04C94.25 3.04 94 3.07 93.87 3.15C93.7 3.25 93.45 3.54 93.11 4C93.01 4.13 92.94 4.2 92.89 4.2C92.71 4.1 92.59 4.02 92.54 3.96C92.66 3.68 92.83 3.14 93.05 2.33C93.11 2.09 93.16 1.93 93.19 1.85ZM6.71 2.33C6.76 2.45 6.87 2.81 7.02 3.4C7.09 3.67 7.13 3.95 7.14 4.25L6.6 4.25C6.22 3.68 5.83 3.28 5.43 3.03Q5.22 2.9 5 2.82Q4.57 2.65 4.08 2.65Q3.65 2.65 3.3 2.82Q2.9 3.01 2.6 3.41Q1.84 4.44 1.84 6.27C1.84 6.98 1.88 7.48 1.97 7.78Q2.18 8.52 2.51 8.98C2.67 9.21 2.89 9.4 3.16 9.54Q3.42 9.68 3.7 9.75Q3.97 9.82 4.27 9.82Q4.38 9.82 4.49 9.81Q5.02 9.75 5.52 9.39C5.93 9.1 6.32 8.68 6.69 8.11C6.83 8.08 7.02 8.06 7.26 8.06C7.24 8.22 7.22 8.38 7.18 8.55Q7.17 8.65 7.05 9.35L6.99 9.54L6.91 9.83C6.67 10.03 6.33 10.17 5.89 10.27Q5.24 10.42 4.29 10.42C3.81 10.42 3.35 10.37 2.92 10.27C2.49 10.18 2.12 10.03 1.81 9.82C1.36 9.52 1.01 9.19 0.75 8.84Q0.54 8.55 0.39 8.24L0.39 8.24Q0.26 7.98 0.18 7.7Q0 7.08 0 6.31Q0 5.03 0.54 4.05Q0.79 3.61 1.15 3.23Q1.61 2.76 2.15 2.47Q3.02 2.02 4.12 2.02Q4.85 2.02 5.5 2.1Q6.15 2.17 6.71 2.33ZM136.85 5.88C136.81 4.78 136.6 3.96 136.22 3.44C135.85 2.92 135.29 2.65 134.55 2.65C134.1 2.65 133.68 2.76 133.29 2.98Q132.72 3.3 132.09 4.25L131.55 4.25C131.56 3.76 131.7 3.14 131.97 2.4C132.73 2.15 133.63 2.02 134.65 2.02Q136.21 2.02 137.19 2.77L137.19 2.77Q137.44 2.96 137.65 3.2C138.34 3.99 138.69 4.99 138.69 6.21C138.69 7.56 138.3 8.6 137.51 9.33C136.73 10.06 135.69 10.42 134.39 10.42Q132.69 10.42 131.77 9.83C131.6 9.16 131.48 8.57 131.42 8.06C131.66 8.06 131.85 8.08 132 8.11C132.57 9.25 133.36 9.82 134.37 9.82Q134.93 9.82 135.38 9.6Q135.82 9.4 136.16 9C136.64 8.45 136.87 7.59 136.87 6.43L136.58 6.44Q136.5 6.44 136.29 6.43L135.37 6.41Q134.47 6.41 134.33 6.53C134.24 6.61 134.14 6.88 134.05 7.35L133.96 7.76L133.54 7.76L133.55 7.3L133.58 6.55L133.57 6.33L133.56 5.44C133.56 5.18 133.57 4.89 133.58 4.54L133.91 4.54C133.93 4.54 133.96 4.54 134 4.54C134.11 5.21 134.23 5.6 134.36 5.72C134.5 5.84 135.19 5.9 136.42 5.9L136.85 5.88ZM155.07 2.33C155.12 2.45 155.23 2.81 155.38 3.4C155.45 3.67 155.49 3.95 155.5 4.25L154.96 4.25Q154.39 3.4 153.79 3.03C153.39 2.78 152.94 2.65 152.44 2.65C151.83 2.65 151.34 2.91 150.96 3.41C150.45 4.1 150.2 5.05 150.2 6.27C150.2 6.98 150.24 7.48 150.33 7.78Q150.54 8.52 150.87 8.98C151.03 9.21 151.25 9.4 151.52 9.54C151.86 9.72 152.23 9.82 152.63 9.82C153.06 9.82 153.48 9.68 153.88 9.39C154.29 9.1 154.68 8.68 155.05 8.11C155.19 8.08 155.38 8.06 155.62 8.06C155.6 8.22 155.58 8.38 155.54 8.55C155.53 8.62 155.49 8.89 155.41 9.35L155.35 9.54L155.27 9.83C155.03 10.03 154.69 10.17 154.25 10.27C153.82 10.37 153.29 10.42 152.65 10.42C152.17 10.42 151.71 10.37 151.28 10.27C150.85 10.18 150.48 10.03 150.17 9.82C149.72 9.52 149.37 9.19 149.11 8.84C148.86 8.49 148.66 8.11 148.54 7.7C148.42 7.28 148.35 6.82 148.35 6.31Q148.35 5.03 148.9 4.05Q149.15 3.61 149.51 3.23C150.29 2.42 151.28 2.02 152.48 2.02C152.97 2.02 153.43 2.04 153.86 2.1Q154.51 2.17 155.07 2.33ZM187.23 2.33C187.28 2.45 187.39 2.81 187.54 3.4C187.61 3.67 187.65 3.95 187.66 4.25L187.12 4.25Q186.55 3.4 185.95 3.03C185.55 2.78 185.1 2.65 184.6 2.65C183.99 2.65 183.5 2.91 183.12 3.41Q182.36 4.44 182.36 6.27C182.36 6.98 182.4 7.48 182.49 7.78C182.63 8.27 182.81 8.67 183.03 8.98C183.19 9.21 183.41 9.4 183.68 9.54C184.02 9.72 184.39 9.82 184.79 9.82C185.22 9.82 185.64 9.68 186.04 9.39C186.45 9.1 186.84 8.68 187.21 8.11C187.35 8.08 187.54 8.06 187.78 8.06C187.76 8.22 187.74 8.38 187.7 8.55C187.69 8.62 187.65 8.89 187.57 9.35L187.51 9.54L187.43 9.83C187.19 10.03 186.85 10.17 186.41 10.27C185.98 10.37 185.45 10.42 184.81 10.42C184.33 10.42 183.87 10.37 183.43 10.27C183.01 10.18 182.64 10.03 182.33 9.82C181.88 9.52 181.53 9.19 181.27 8.84C181.01 8.49 180.82 8.11 180.7 7.7C180.58 7.28 180.51 6.82 180.51 6.31C180.51 5.06 180.9 4.04 181.67 3.23C182.45 2.42 183.44 2.02 184.64 2.02C185.13 2.02 185.59 2.04 186.02 2.1C186.45 2.15 186.86 2.22 187.23 2.33ZM41.89 5.53C42.24 5.65 42.55 5.85 42.81 6.15Q43.22 6.58 43.79 7.65C44.24 8.49 44.58 9.03 44.81 9.27C45.04 9.5 45.35 9.68 45.73 9.79C45.88 9.83 45.97 9.87 46.01 9.89C46.01 9.97 46.02 10.03 46.02 10.07Q46.02 10.14 45.99 10.3L45.34 10.29L44.45 10.26C44.23 10.26 43.93 10.28 43.56 10.31C43.32 9.74 42.94 9.01 42.43 8.12C41.93 7.23 41.56 6.7 41.32 6.53C41.09 6.36 40.84 6.28 40.6 6.28C40.58 6.43 40.57 6.57 40.57 6.7L40.6 7.56C40.61 7.73 40.61 7.9 40.61 8.06L40.6 8.81L40.61 9.03L40.63 9.46C40.7 9.56 40.9 9.65 41.22 9.74C41.39 9.79 41.54 9.85 41.67 9.94C41.68 10.02 41.68 10.08 41.68 10.12C41.68 10.16 41.68 10.21 41.67 10.28C41.5 10.29 41.35 10.29 41.24 10.29C40.95 10.29 40.63 10.28 40.28 10.26L39.89 10.23L39.35 10.25L38.31 10.24L37.75 10.26L37.74 9.91C37.78 9.88 37.96 9.8 38.3 9.67L38.45 9.6C38.62 9.52 38.74 9.47 38.8 9.45C38.88 9.4 38.93 9.33 38.95 9.24C38.98 9.15 38.99 8.83 38.99 8.27L38.97 7.67L38.98 6.34L38.97 5.4L38.98 5.13L38.97 4.32L38.99 4C38.99 3.52 38.96 3.19 38.9 3.02C38.78 2.91 38.54 2.81 38.19 2.72C37.98 2.66 37.84 2.61 37.76 2.55L37.81 2.16Q37.92 2.14 38.04 2.14C38.33 2.14 38.62 2.16 38.9 2.2C39.19 2.24 39.56 2.26 40.01 2.26L40.26 2.25L40.97 2.22C41.08 2.22 41.22 2.21 41.41 2.19L41.61 2.17L41.76 2.18C41.77 2.21 41.78 2.26 41.78 2.32C41.78 2.46 41.77 2.55 41.76 2.59C41.52 2.69 41.27 2.76 41.02 2.8C40.82 2.84 40.7 2.88 40.65 2.91C40.6 2.94 40.58 3.02 40.58 3.14Q40.58 3.76 40.59 3.96L40.6 4.49L40.59 4.89L40.59 5.37L40.58 5.91C40.82 5.83 41.04 5.71 41.26 5.54C41.49 5.37 41.76 4.99 42.1 4.4C42.67 3.38 43.16 2.73 43.55 2.45Q44.14 2.03 44.73 2.03C45.12 2.03 45.42 2.14 45.63 2.35Q45.79 2.52 45.87 2.71Q45.94 2.89 45.94 3.1C45.94 3.32 45.88 3.51 45.75 3.68C45.62 3.85 45.44 3.93 45.22 3.93C45.05 3.93 44.91 3.89 44.81 3.82C44.71 3.74 44.58 3.59 44.44 3.37C44.3 3.14 44.16 3.03 44.01 3.03C43.68 3.03 43.25 3.51 42.73 4.46C42.42 5.01 42.14 5.37 41.89 5.53ZM46.51 6.15C46.51 5.63 46.61 5.11 46.8 4.59C46.94 4.21 47.13 3.87 47.38 3.56C47.63 3.24 47.94 2.96 48.31 2.72C48.69 2.48 49.07 2.3 49.46 2.2Q50.04 2.03 50.76 2.03C51.58 2.03 52.3 2.2 52.9 2.52C53.5 2.85 53.98 3.29 54.32 3.84Q54.81 4.63 54.95 5.48Q55 5.79 55 6.11Q55 7.13 54.62 7.98Q54.34 8.61 53.86 9.15Q53.58 9.46 53.25 9.69Q52.23 10.41 50.69 10.41C50.36 10.41 50.05 10.39 49.75 10.34C49.53 10.31 49.34 10.26 49.17 10.21C48.87 10.1 48.71 10.04 48.67 10.02C48.24 9.77 47.9 9.5 47.64 9.23Q47.59 9.18 47.55 9.14L47.55 9.14Q47.22 8.76 46.98 8.31C46.88 8.12 46.76 7.77 46.64 7.27C46.56 6.95 46.51 6.57 46.51 6.15ZM111.89 6.15C111.89 5.63 111.98 5.11 112.17 4.59C112.31 4.21 112.5 3.87 112.75 3.56Q113.12 3.09 113.68 2.72C114.06 2.48 114.44 2.3 114.83 2.2C115.22 2.09 115.66 2.03 116.14 2.03Q117.37 2.03 118.27 2.52C118.87 2.85 119.35 3.29 119.69 3.84C120.14 4.56 120.37 5.32 120.37 6.11Q120.37 7.13 119.99 7.98Q119.71 8.61 119.23 9.15C118.47 9.99 117.42 10.41 116.07 10.41C115.73 10.41 115.42 10.39 115.13 10.34C114.9 10.31 114.71 10.26 114.55 10.21C114.25 10.1 114.08 10.04 114.04 10.02C113.61 9.77 113.27 9.5 113.01 9.23C112.75 8.96 112.53 8.65 112.35 8.31C112.25 8.12 112.14 7.77 112.01 7.27C111.93 6.95 111.89 6.57 111.89 6.15ZM143.71 5.53C144.06 5.65 144.37 5.85 144.64 6.15C144.9 6.44 145.23 6.94 145.61 7.65C146.06 8.49 146.4 9.03 146.63 9.27C146.86 9.5 147.17 9.68 147.56 9.79C147.7 9.83 147.79 9.87 147.83 9.89C147.84 9.97 147.84 10.03 147.84 10.07C147.84 10.12 147.83 10.2 147.82 10.3L147.17 10.29L146.27 10.26C146.05 10.26 145.75 10.28 145.39 10.31C145.14 9.74 144.76 9.01 144.26 8.12C143.75 7.23 143.38 6.7 143.15 6.53C142.91 6.36 142.67 6.28 142.42 6.28C142.4 6.43 142.39 6.57 142.39 6.7L142.42 7.56C142.43 7.73 142.44 7.9 142.44 8.06L142.42 8.81L142.44 9.03L142.45 9.46C142.53 9.56 142.72 9.65 143.04 9.74C143.22 9.79 143.37 9.85 143.49 9.94C143.5 10.02 143.51 10.08 143.51 10.12C143.51 10.16 143.5 10.21 143.5 10.28C143.32 10.29 143.17 10.29 143.06 10.29C142.77 10.29 142.45 10.28 142.11 10.26L141.71 10.23L141.18 10.25L140.13 10.24L139.57 10.26L139.56 9.91C139.6 9.88 139.78 9.8 140.12 9.67L140.27 9.6C140.45 9.52 140.56 9.47 140.62 9.45C140.7 9.4 140.75 9.33 140.78 9.24Q140.81 9.1 140.81 8.27L140.79 7.67L140.8 6.34L140.79 5.4L140.81 5.13L140.79 4.32L140.81 4C140.81 3.52 140.78 3.19 140.72 3.02C140.6 2.91 140.36 2.81 140.01 2.72C139.8 2.66 139.66 2.61 139.59 2.55L139.63 2.16C139.7 2.15 139.78 2.14 139.87 2.14C140.15 2.14 140.44 2.16 140.72 2.2C141.01 2.24 141.38 2.26 141.83 2.26L142.08 2.25L142.79 2.22C142.9 2.22 143.04 2.21 143.23 2.19L143.44 2.17L143.58 2.18C143.6 2.21 143.6 2.26 143.6 2.32C143.6 2.46 143.6 2.55 143.58 2.59C143.34 2.69 143.1 2.76 142.84 2.8C142.64 2.84 142.52 2.88 142.47 2.91C142.42 2.94 142.4 3.02 142.4 3.14C142.4 3.55 142.41 3.83 142.41 3.96L142.42 4.49L142.41 4.89L142.41 5.37L142.41 5.91C142.64 5.83 142.87 5.71 143.09 5.54C143.31 5.37 143.59 4.99 143.92 4.4C144.5 3.38 144.98 2.73 145.37 2.45C145.76 2.17 146.16 2.03 146.55 2.03Q147.1 2.03 147.4 2.3Q147.42 2.33 147.45 2.35C147.66 2.56 147.76 2.81 147.76 3.1C147.76 3.32 147.7 3.51 147.57 3.68C147.44 3.85 147.27 3.93 147.04 3.93C146.87 3.93 146.73 3.89 146.63 3.82C146.53 3.74 146.41 3.59 146.26 3.37C146.12 3.14 145.98 3.03 145.84 3.03Q145.34 3.03 144.55 4.46Q144.09 5.28 143.71 5.53ZM160.47 5.53C160.82 5.65 161.13 5.85 161.4 6.15C161.67 6.44 162 6.94 162.38 7.65C162.83 8.49 163.17 9.03 163.39 9.27C163.63 9.5 163.94 9.68 164.32 9.79C164.46 9.83 164.55 9.87 164.59 9.89C164.6 9.97 164.61 10.03 164.61 10.07C164.61 10.12 164.6 10.2 164.58 10.3L163.93 10.29L163.04 10.26C162.81 10.26 162.52 10.28 162.15 10.31Q161.78 9.45 161.02 8.12Q160.27 6.78 159.91 6.53C159.67 6.36 159.43 6.28 159.18 6.28C159.17 6.43 159.16 6.57 159.16 6.7L159.19 7.56C159.2 7.73 159.2 7.9 159.2 8.06L159.19 8.81L159.2 9.03L159.21 9.46C159.29 9.56 159.49 9.65 159.81 9.74C159.98 9.79 160.13 9.85 160.25 9.94C160.27 10.02 160.27 10.08 160.27 10.12C160.27 10.16 160.27 10.21 160.26 10.28C160.08 10.29 159.94 10.29 159.83 10.29C159.54 10.29 159.22 10.28 158.87 10.26L158.48 10.23L157.94 10.25L156.9 10.24L156.34 10.26L156.33 9.91C156.37 9.88 156.55 9.8 156.89 9.67L157.04 9.6C157.21 9.52 157.33 9.47 157.39 9.45C157.47 9.4 157.52 9.33 157.54 9.24C157.57 9.15 157.58 8.83 157.58 8.27L157.56 7.67L157.57 6.34L157.56 5.4L157.57 5.13L157.56 4.32L157.58 4C157.58 3.52 157.55 3.19 157.49 3.02Q157.31 2.85 156.78 2.72C156.57 2.66 156.43 2.61 156.35 2.55L156.39 2.16C156.47 2.15 156.55 2.14 156.63 2.14C156.92 2.14 157.2 2.16 157.49 2.2C157.78 2.24 158.14 2.26 158.59 2.26L158.85 2.25L159.56 2.22C159.66 2.22 159.81 2.21 159.99 2.19L160.2 2.17L160.35 2.18C160.36 2.21 160.37 2.26 160.37 2.32C160.37 2.46 160.36 2.55 160.35 2.59C160.11 2.69 159.86 2.76 159.6 2.8C159.41 2.84 159.28 2.88 159.24 2.91C159.19 2.94 159.17 3.02 159.17 3.14Q159.17 3.76 159.18 3.96L159.19 4.49L159.18 4.89L159.18 5.37L159.17 5.91C159.41 5.83 159.63 5.71 159.85 5.54Q160.18 5.29 160.69 4.4Q161.55 2.87 162.13 2.45C162.53 2.17 162.92 2.03 163.32 2.03C163.71 2.03 164.01 2.14 164.22 2.35C164.27 2.4 164.31 2.45 164.35 2.51C164.35 2.48 164.35 2.46 164.35 2.42C164.36 2.38 164.36 2.32 164.36 2.24C164.42 2.22 164.54 2.2 164.71 2.2L165.1 2.19C165.12 2.2 165.14 2.2 165.16 2.2C165.26 2.22 165.33 2.23 165.37 2.23C165.38 2.23 165.4 2.23 165.43 2.22C165.84 2.29 166.39 2.32 167.08 2.32C167.39 2.32 167.7 2.3 168.01 2.25C168.05 2.25 168.08 2.24 168.11 2.24C168.11 2.24 168.12 2.24 168.15 2.25C168.17 2.3 168.18 2.34 168.18 2.37C168.18 2.38 168.17 2.41 168.17 2.45C168.17 2.48 168.16 2.5 168.16 2.52L168.17 2.7C168.09 2.73 167.98 2.76 167.85 2.79L167.58 2.84C167.45 2.86 167.32 2.88 167.18 2.9C167.15 2.91 167.14 2.94 167.14 3.01Q167.22 3.22 167.49 3.65L167.65 3.92L167.96 4.39L168.79 5.74L169.4 6.91L170.96 3.4C171.08 3.14 171.14 2.98 171.14 2.94C171.14 2.83 171.01 2.77 170.75 2.77L170.54 2.72C170.44 2.71 170.38 2.69 170.35 2.69C170.34 2.66 170.33 2.5 170.31 2.22C170.38 2.22 170.55 2.23 170.82 2.26L171.52 2.29L171.67 2.32L171.95 2.32L172.05 2.31C172.14 2.3 172.22 2.29 172.3 2.28L172.49 2.27L172.55 2.26C172.6 2.26 172.66 2.25 172.72 2.24L172.71 2.71L172.63 2.74C172.31 2.78 172.07 2.85 171.93 2.95C171.79 3.04 171.63 3.3 171.45 3.71L169.36 8.43C168.77 9.79 167.96 10.47 166.95 10.47C166.55 10.47 166.22 10.37 165.98 10.16C165.74 9.95 165.62 9.7 165.62 9.41C165.62 9.19 165.69 8.99 165.84 8.83C165.98 8.66 166.17 8.58 166.4 8.58C166.53 8.58 166.64 8.61 166.76 8.66C166.88 8.71 167.02 8.87 167.19 9.14Q167.4 9.47 167.62 9.47L167.62 9.47C168 9.47 168.33 9.17 168.63 8.56C168.6 8.33 168.23 7.69 167.52 6.65C167.3 6.32 167.09 6 166.89 5.68Q166.37 4.81 165.86 4.04L165.71 3.77C165.53 3.47 165.34 3.18 165.12 2.89C165.04 2.8 164.89 2.73 164.67 2.69L164.58 2.67C164.51 2.65 164.46 2.63 164.42 2.63C164.49 2.77 164.53 2.93 164.53 3.1C164.53 3.32 164.46 3.51 164.33 3.68C164.21 3.85 164.03 3.93 163.81 3.93C163.63 3.93 163.5 3.89 163.39 3.82C163.3 3.74 163.17 3.59 163.03 3.37C162.89 3.14 162.74 3.03 162.6 3.03Q162.11 3.03 161.32 4.46C161.01 5.01 160.73 5.37 160.47 5.53ZM199.18 6.15Q199.18 5.37 199.46 4.59C199.6 4.21 199.79 3.87 200.04 3.56C200.29 3.24 200.6 2.96 200.97 2.72C201.35 2.48 201.73 2.3 202.12 2.2C202.51 2.09 202.95 2.03 203.43 2.03C204.25 2.03 204.96 2.2 205.56 2.52Q206.17 2.85 206.61 3.34L206.61 3.34Q206.82 3.57 206.99 3.84C207.44 4.56 207.66 5.32 207.66 6.11C207.66 7.29 207.28 8.31 206.52 9.15C205.76 9.99 204.71 10.41 203.36 10.41C203.02 10.41 202.71 10.39 202.42 10.34C202.2 10.31 202 10.26 201.84 10.21C201.54 10.1 201.37 10.04 201.34 10.02C200.91 9.77 200.56 9.5 200.3 9.23C200.04 8.96 199.82 8.65 199.64 8.31C199.54 8.12 199.43 7.77 199.3 7.27C199.22 6.95 199.18 6.57 199.18 6.15ZM271.3 6.15C271.3 5.63 271.39 5.11 271.58 4.59C271.72 4.21 271.91 3.87 272.16 3.56C272.41 3.24 272.72 2.96 273.1 2.72C273.47 2.48 273.85 2.3 274.24 2.2C274.63 2.09 275.07 2.03 275.55 2.03C276.37 2.03 277.08 2.2 277.68 2.52C278.29 2.85 278.76 3.29 279.11 3.84Q279.6 4.63 279.73 5.48Q279.78 5.79 279.78 6.11Q279.78 7.13 279.4 7.98Q279.13 8.61 278.64 9.15C277.89 9.99 276.83 10.41 275.48 10.41C275.14 10.41 274.83 10.39 274.54 10.34C274.32 10.31 274.13 10.26 273.96 10.21C273.66 10.1 273.49 10.04 273.46 10.02C273.03 9.77 272.68 9.5 272.42 9.23C272.16 8.96 271.94 8.65 271.76 8.31C271.66 8.12 271.55 7.77 271.42 7.27Q271.3 6.79 271.3 6.15ZM7.5 10.3L7.51 9.87C7.58 9.85 7.72 9.82 7.9 9.78C8.21 9.72 8.39 9.66 8.45 9.61C8.52 9.56 8.6 9.44 8.7 9.25L9.89 5.94L11.29 2.05Q11.49 2.05 11.66 2.05L11.93 2.05L11.98 2.17L13.01 4.74C13.25 5.29 13.45 5.82 13.64 6.34C13.82 6.85 13.98 7.27 14.12 7.6C14.2 7.79 14.31 8.09 14.44 8.48C14.51 8.69 14.62 8.96 14.77 9.28C14.85 9.45 14.91 9.56 14.95 9.59C15.02 9.65 15.13 9.69 15.29 9.71C15.45 9.73 15.62 9.78 15.81 9.86C15.83 9.99 15.84 10.1 15.84 10.16C15.84 10.19 15.84 10.24 15.83 10.3C15.54 10.3 15.22 10.28 14.87 10.26C14.52 10.23 14.2 10.21 13.92 10.21C13.61 10.21 13.39 10.22 13.25 10.22L12.24 10.28L11.95 10.29C11.95 10.15 11.96 10.01 11.97 9.87L12.63 9.72C12.83 9.67 12.94 9.63 12.97 9.6C13.01 9.56 13.03 9.51 13.03 9.45C13.03 9.4 13.02 9.34 13 9.29L12.76 8.67L12.3 7.45L10.04 7.44C9.96 7.64 9.78 8.13 9.52 8.91C9.45 9.13 9.41 9.28 9.41 9.36C9.41 9.47 9.44 9.55 9.5 9.59C9.59 9.67 9.76 9.73 10.02 9.76C10.05 9.77 10.19 9.79 10.43 9.83C10.44 9.98 10.44 10.08 10.44 10.14C10.44 10.19 10.44 10.24 10.43 10.29Q10.06 10.29 8.68 10.18L8.44 10.22Q8 10.3 7.6 10.3L7.5 10.3ZM294.97 10.3L294.98 9.87C295.06 9.85 295.19 9.82 295.38 9.78C295.68 9.72 295.86 9.66 295.93 9.61C295.99 9.56 296.07 9.44 296.17 9.25L297.36 5.94L298.76 2.05Q298.96 2.05 299.14 2.05L299.4 2.05L299.46 2.17L300.49 4.74C300.72 5.29 300.93 5.82 301.11 6.34C301.3 6.85 301.46 7.27 301.59 7.6C301.67 7.79 301.78 8.09 301.92 8.48C301.99 8.69 302.1 8.96 302.24 9.28C302.32 9.45 302.38 9.56 302.42 9.59C302.49 9.65 302.6 9.69 302.76 9.71C302.92 9.73 303.1 9.78 303.28 9.86C303.3 9.99 303.31 10.1 303.31 10.16C303.31 10.19 303.31 10.24 303.31 10.3C303.01 10.3 302.69 10.28 302.34 10.26C301.99 10.23 301.68 10.21 301.4 10.21C301.08 10.21 300.86 10.22 300.72 10.22L299.72 10.28L299.43 10.29C299.43 10.15 299.43 10.01 299.45 9.87L300.1 9.72C300.3 9.67 300.41 9.63 300.44 9.6C300.48 9.56 300.5 9.51 300.5 9.45C300.5 9.4 300.49 9.34 300.47 9.29L300.24 8.67L299.77 7.45L297.51 7.44C297.43 7.64 297.26 8.13 297 8.91C296.92 9.13 296.89 9.28 296.89 9.36C296.89 9.47 296.91 9.55 296.97 9.59C297.06 9.67 297.23 9.73 297.49 9.76C297.52 9.77 297.66 9.79 297.91 9.83C297.91 9.98 297.91 10.08 297.91 10.14C297.91 10.19 297.91 10.24 297.9 10.29Q297.54 10.29 296.15 10.18L295.91 10.22C295.62 10.27 295.34 10.3 295.08 10.3L294.97 10.3ZM253.22 10.27C253.22 10.15 253.23 10 253.26 9.83C253.29 9.82 253.38 9.81 253.51 9.79L253.76 9.74C254.01 9.7 254.2 9.65 254.32 9.59L254.4 8.03L254.37 6.76L254.38 6.37L254.4 4.62L254.39 4.07L254.39 3.81C254.39 3.31 254.36 2.98 254.29 2.8C254.27 2.79 254.23 2.78 254.19 2.78C254.15 2.78 254.11 2.77 254.07 2.76C253.89 2.73 253.73 2.71 253.58 2.7L253.49 2.67C253.38 2.66 253.3 2.64 253.25 2.62C253.24 2.5 253.23 2.42 253.23 2.39C253.23 2.34 253.25 2.27 253.27 2.18Q253.4 2.15 253.55 2.15C253.78 2.15 254.03 2.16 254.28 2.18C254.99 2.24 255.77 2.27 256.61 2.27L258.51 2.23L259.91 2.25C260.96 2.25 261.7 2.22 262.14 2.17C262.31 2.15 262.42 2.13 262.49 2.13C262.56 2.13 262.68 2.14 262.85 2.16C262.85 2.33 262.84 2.47 262.82 2.6C262.29 2.71 261.94 2.82 261.77 2.92C261.74 3.01 261.72 3.24 261.72 3.63L261.72 3.76L261.73 4.07L261.73 5.46L261.73 6.56L261.74 7.38L261.74 8.27L261.75 9.01C261.75 9.16 261.75 9.32 261.74 9.51C261.82 9.54 261.9 9.56 261.97 9.57C262.34 9.66 262.62 9.74 262.81 9.83L262.83 10.27L262.55 10.27C262.5 10.27 262.43 10.27 262.34 10.26L261.9 10.24Q261.42 10.18 260.35 10.18C260.12 10.18 259.9 10.19 259.71 10.21L259.09 10.26C259.03 10.26 258.96 10.25 258.89 10.22C258.89 10.02 258.9 9.89 258.91 9.82L259.32 9.72L259.55 9.67C259.79 9.63 259.96 9.6 260.03 9.57C260.08 9.36 260.11 8.07 260.11 5.68L260.07 2.97C259.95 2.95 259.79 2.95 259.6 2.94L256.86 2.91L256.8 2.9Q256.79 2.9 256.76 2.9C256.74 2.9 256.7 2.9 256.67 2.9L256.41 2.91C256.19 2.91 256.05 2.93 255.99 2.95Q255.96 3.61 255.96 4.09L255.98 7.32L255.98 9.12C255.98 9.35 255.98 9.51 255.99 9.59C256.02 9.62 256.09 9.64 256.2 9.65L256.47 9.69C256.59 9.71 256.7 9.73 256.8 9.75L257.02 9.8C257.07 9.81 257.12 9.83 257.15 9.86Q257.17 10 257.17 10.05C257.17 10.1 257.16 10.18 257.15 10.27L256.78 10.28Q256.56 10.28 256.15 10.24L255.7 10.24L255.4 10.21L254.78 10.2C254.62 10.2 254.44 10.21 254.24 10.24L253.85 10.27L253.22 10.27ZM18.73 8.03Q21.87 4.67 22.84 3.5C22.84 3.19 22.83 3.01 22.81 2.97C22.79 2.92 22.73 2.86 22.62 2.81C22.51 2.75 22.29 2.68 21.97 2.6C21.82 2.57 21.72 2.54 21.67 2.52C21.68 2.36 21.7 2.24 21.72 2.16L21.89 2.15C22.22 2.15 22.44 2.16 22.55 2.17C22.86 2.21 23.17 2.23 23.48 2.23C23.99 2.23 24.45 2.21 24.87 2.17C25.02 2.15 25.14 2.14 25.23 2.14C25.32 2.14 25.44 2.15 25.6 2.16C25.6 2.33 25.59 2.47 25.57 2.6C25.13 2.7 24.83 2.79 24.69 2.85C24.55 2.91 24.48 3.01 24.48 3.17L24.48 4.07L24.49 5.46L24.48 6.26L24.49 7.38L24.49 8.27L24.5 9.01C24.5 9.16 24.5 9.32 24.49 9.51C24.58 9.54 24.65 9.56 24.72 9.57C25.09 9.66 25.37 9.74 25.56 9.83L25.58 10.27L25.33 10.27C25.26 10.27 25.18 10.27 25.1 10.26L24.65 10.24C24.33 10.2 23.81 10.18 23.1 10.18C22.74 10.18 22.46 10.19 22.27 10.22C22.02 10.25 21.87 10.26 21.82 10.26C21.78 10.26 21.72 10.25 21.64 10.22C21.64 10.02 21.65 9.89 21.67 9.82L22.07 9.72L22.3 9.67C22.55 9.63 22.71 9.6 22.78 9.57C22.84 9.26 22.86 8.52 22.86 7.35L22.86 5.51L22.87 4.34L18.73 8.85C18.73 9.32 18.74 9.57 18.75 9.59C18.77 9.62 18.84 9.64 18.95 9.65L19.34 9.71C19.68 9.78 19.87 9.83 19.91 9.86C19.92 9.95 19.92 10.02 19.92 10.05C19.92 10.1 19.92 10.18 19.9 10.27L19.53 10.28C19.38 10.28 19.17 10.27 18.9 10.24L18.46 10.24L18.16 10.22L17.62 10.2C17.44 10.2 17.23 10.21 16.99 10.24C16.73 10.26 16.4 10.27 15.97 10.27C15.97 10.15 15.99 10 16.01 9.83C16.05 9.82 16.13 9.81 16.26 9.79L16.51 9.74C16.76 9.7 16.95 9.65 17.07 9.59Q17.13 8.41 17.13 7.53L17.13 6.7L17.15 4.58C17.15 3.94 17.13 3.39 17.09 2.94C17.08 2.91 17.07 2.87 17.04 2.8C17.02 2.79 16.99 2.78 16.94 2.78C16.9 2.78 16.86 2.77 16.83 2.76C16.64 2.73 16.48 2.71 16.33 2.7L16.25 2.67C16.14 2.66 16.06 2.64 16 2.62C15.99 2.5 15.99 2.42 15.99 2.39C15.99 2.34 16 2.27 16.02 2.18C16.11 2.16 16.2 2.15 16.3 2.15C16.59 2.15 16.92 2.17 17.3 2.21C17.65 2.24 17.94 2.26 18.17 2.26C18.49 2.26 18.78 2.25 19.05 2.22Q19.54 2.16 19.63 2.16C19.71 2.16 19.8 2.17 19.92 2.19L19.92 2.38C19.92 2.45 19.92 2.53 19.9 2.62L18.86 2.8C18.8 2.81 18.76 2.9 18.75 3.09C18.74 3.28 18.74 3.5 18.74 3.76L18.74 4.06L18.74 4.62L18.74 4.94L18.72 5.37C18.72 5.42 18.73 5.52 18.74 5.66C18.74 5.85 18.75 6.04 18.75 6.22C18.75 6.37 18.74 6.52 18.74 6.67L18.72 7L18.73 8.03ZM55.95 10.27C55.95 10.15 55.96 10 55.98 9.83L56.72 9.69C56.81 9.67 56.92 9.64 57.05 9.59L57.13 8.03C57.11 7.47 57.1 7.04 57.1 6.76L57.11 6.61C57.12 6.44 57.13 6.01 57.13 5.33L57.11 5.14L57.13 4.62L57.12 4.07L57.12 3.81Q57.12 3.44 57.07 2.95C57.06 2.93 57.05 2.88 57.02 2.8C56.99 2.79 56.95 2.78 56.91 2.78C56.88 2.78 56.84 2.77 56.8 2.76C56.65 2.73 56.48 2.71 56.31 2.7L56.22 2.67C56.11 2.66 56.03 2.64 55.98 2.62C55.97 2.5 55.96 2.42 55.96 2.39C55.96 2.34 55.97 2.27 56 2.18Q56.11 2.16 56.33 2.16C56.47 2.16 56.57 2.16 56.62 2.15C57.1 2.21 57.46 2.24 57.69 2.24C57.8 2.24 57.91 2.25 58.01 2.25Q58.18 2.26 58.3 2.26C58.43 2.26 58.75 2.24 59.25 2.2Q59.38 2.17 59.53 2.17C59.67 2.17 59.79 2.17 59.89 2.19C59.9 2.28 59.9 2.34 59.9 2.38C59.9 2.45 59.89 2.53 59.87 2.62L58.83 2.8C58.75 2.84 58.7 2.9 58.7 2.98L58.72 3.21L58.73 3.31L58.72 3.59L58.71 3.8L58.71 3.85C58.71 3.89 58.72 3.93 58.72 3.97L58.71 4.76C58.71 4.84 58.72 4.89 58.72 4.93C58.72 4.95 58.71 5.02 58.7 5.13C58.7 5.2 58.7 5.27 58.7 5.34C58.7 5.4 58.7 5.55 58.72 5.78C58.83 5.8 58.92 5.82 58.99 5.82L59.87 5.84L60.29 5.84L61.36 5.84L62.39 5.81C62.53 5.81 62.67 5.8 62.82 5.77C62.83 5.63 62.83 5.28 62.84 4.72L62.85 4.44L62.81 3.38L62.77 2.94C62.76 2.91 62.73 2.89 62.69 2.86C62.55 2.78 62.27 2.68 61.86 2.58C61.79 2.56 61.71 2.54 61.65 2.52C61.66 2.37 61.67 2.25 61.7 2.16Q61.83 2.15 61.85 2.15L62.43 2.16C62.79 2.21 63.17 2.23 63.55 2.23C63.63 2.23 63.7 2.23 63.75 2.23L64.52 2.2C64.59 2.2 64.66 2.2 64.73 2.19C64.87 2.16 65.02 2.14 65.17 2.14C65.28 2.14 65.42 2.15 65.58 2.16C65.58 2.32 65.57 2.47 65.55 2.6C65.19 2.68 64.95 2.74 64.83 2.78C64.72 2.81 64.61 2.86 64.5 2.92L64.46 3.05L64.46 3.15L64.47 3.32L64.46 3.4C64.45 3.49 64.45 3.55 64.45 3.6L64.45 3.76C64.45 3.94 64.46 4.05 64.46 4.07L64.46 4.86L64.46 5.46L64.45 6.26C64.45 6.29 64.45 6.34 64.45 6.39C64.45 6.6 64.46 6.93 64.47 7.38L64.47 8.27L64.48 9.01C64.48 9.15 64.48 9.32 64.47 9.51Q64.59 9.55 64.7 9.57C65.07 9.66 65.35 9.74 65.54 9.83L65.56 10.27C65.4 10.27 65.31 10.27 65.28 10.27C65.09 10.27 64.87 10.26 64.63 10.24C64.3 10.2 63.78 10.18 63.07 10.18C62.74 10.18 62.33 10.21 61.81 10.26C61.76 10.26 61.69 10.25 61.61 10.22C61.62 10.03 61.63 9.9 61.64 9.82L62.1 9.71L62.58 9.62C62.62 9.61 62.68 9.59 62.76 9.57C62.8 9.23 62.83 8.67 62.83 7.88L62.84 7.35C62.81 7.13 62.8 6.87 62.8 6.56C62.65 6.55 62.5 6.54 62.33 6.53L59.58 6.5L59.53 6.5L59.49 6.49Q59.45 6.49 59.4 6.5C59.29 6.5 59.21 6.5 59.14 6.5L58.97 6.5C58.89 6.5 58.81 6.52 58.72 6.55L58.69 7.01L58.69 7.1C58.7 7.21 58.7 7.28 58.7 7.32L58.7 9.25Q58.7 9.42 58.72 9.59L58.78 9.62L59.65 9.77C59.69 9.78 59.73 9.79 59.75 9.8C59.8 9.81 59.84 9.83 59.88 9.86Q59.9 10 59.9 10.05C59.9 10.1 59.89 10.18 59.87 10.27Q59.66 10.28 59.51 10.28C59.43 10.28 59.35 10.28 59.27 10.27Q59.22 10.27 59.17 10.27L58.34 10.23C58.14 10.21 57.86 10.2 57.51 10.2L57.39 10.21C57.22 10.21 57.12 10.22 57.1 10.22C56.85 10.26 56.47 10.27 55.95 10.27ZM67.54 2.91C67.45 2.88 67.38 2.86 67.31 2.85C66.93 2.76 66.65 2.68 66.47 2.59L66.45 2.15L66.73 2.15L66.94 2.15L67.38 2.18C67.7 2.22 68.22 2.24 68.93 2.24C69.16 2.24 69.37 2.23 69.57 2.22L70.19 2.16C70.25 2.16 70.32 2.17 70.39 2.19C70.39 2.39 70.38 2.53 70.37 2.6L69.96 2.7L69.73 2.74C69.48 2.78 69.32 2.82 69.24 2.85C69.19 3.06 69.17 4.35 69.17 6.74L69.2 9.45C69.33 9.47 69.49 9.47 69.68 9.47L72.42 9.51L72.61 9.52C73.01 9.52 73.23 9.5 73.29 9.47L73.32 8.32L73.31 5.11L73.3 3.3C73.3 3.06 73.29 2.91 73.28 2.83C73.26 2.8 73.19 2.79 73.08 2.77L72.81 2.73C72.69 2.71 72.58 2.69 72.48 2.67L72.26 2.62C72.2 2.61 72.16 2.59 72.13 2.57C72.11 2.47 72.11 2.41 72.11 2.37Q72.11 2.28 72.13 2.15L72.5 2.14C72.65 2.14 72.86 2.15 73.13 2.17L74.5 2.22C74.65 2.22 74.83 2.21 75.04 2.17L75.42 2.15L76.05 2.14C76.05 2.27 76.04 2.42 76.02 2.59L75.52 2.68C75.27 2.72 75.09 2.77 74.96 2.82L74.88 4.39L74.91 5.66L74.9 6.05L74.88 7.8L74.89 8.34L74.89 8.61C74.89 9.07 74.93 9.38 75.01 9.52C75.1 9.66 75.26 9.77 75.51 9.84C75.66 9.89 75.76 9.96 75.8 10.05C75.84 10.13 75.86 10.39 75.87 10.83L75.91 11.46C75.92 11.62 75.93 11.79 75.94 11.96C75.85 11.98 75.74 11.99 75.6 12C75.53 11.86 75.46 11.71 75.39 11.54C75.21 11.11 75.05 10.82 74.91 10.67C74.77 10.54 74.61 10.44 74.42 10.39C74.22 10.34 73.6 10.29 72.54 10.24C71.49 10.2 70.43 10.17 69.36 10.17C68.31 10.17 67.58 10.2 67.15 10.25C66.98 10.27 66.86 10.28 66.79 10.28C66.72 10.28 66.59 10.27 66.42 10.26C66.43 10.09 66.44 9.94 66.45 9.81C66.99 9.7 67.34 9.6 67.51 9.5C67.54 9.42 67.56 9.18 67.56 8.79C67.56 8.76 67.56 8.72 67.55 8.67L67.55 8.35L67.54 6.96L67.55 5.85L67.54 5.03L67.54 4.14L67.52 3.41C67.52 3.27 67.53 3.1 67.54 2.91ZM85.39 2.62L85.39 2.14L86.8 2.23L87.43 2.23L87.67 2.23C87.91 2.23 88.28 2.21 88.79 2.18C89.09 2.16 89.27 2.15 89.34 2.15C89.84 2.15 90.22 2.18 90.47 2.24Q91.05 2.37 91.38 2.64C91.61 2.83 91.81 3.09 91.97 3.43Q92.22 3.94 92.22 4.37C92.22 5.1 92 5.69 91.57 6.15C91.14 6.6 90.59 6.82 89.94 6.82C89.71 6.82 89.49 6.79 89.28 6.73C89.07 6.67 88.88 6.59 88.7 6.47Q88.67 6.29 88.67 5.97C88.76 5.98 88.85 5.98 88.92 5.99C89 5.99 89.07 6 89.13 6C89.47 6 89.75 5.9 89.98 5.7C90.28 5.45 90.43 5.03 90.43 4.46Q90.43 3.85 90.23 3.46C90.1 3.2 89.95 3.02 89.76 2.93C89.51 2.8 89.23 2.74 88.91 2.74C88.62 2.74 88.41 2.79 88.28 2.88C88.25 2.93 88.22 2.99 88.21 3.04L88.25 5.98L88.24 6.23L88.26 6.5C88.26 6.55 88.26 6.64 88.26 6.75L88.26 7.27L88.27 8.08L88.26 9.06C88.26 9.2 88.27 9.38 88.29 9.62L89.47 9.77C89.48 9.87 89.49 9.95 89.49 10.01C89.49 10.07 89.48 10.16 89.46 10.27C89.36 10.29 89.29 10.3 89.24 10.3C89.12 10.3 88.88 10.28 88.55 10.26Q88.04 10.21 87.39 10.21C86.9 10.21 86.43 10.24 85.99 10.31C85.92 10.32 85.8 10.33 85.64 10.34C85.62 10.22 85.61 10.13 85.61 10.07C85.61 10.03 85.62 9.97 85.63 9.89L85.99 9.77C86.23 9.69 86.45 9.59 86.63 9.48C86.67 9.36 86.68 9.25 86.68 9.15C86.68 9.11 86.68 9.06 86.68 9C86.67 8.88 86.67 8.69 86.67 8.46L86.65 6.7L86.59 4.72C86.56 3.78 86.54 3.27 86.52 3.19C86.5 3.07 86.45 2.98 86.38 2.91Q86.28 2.8 86.05 2.76C85.72 2.7 85.5 2.65 85.39 2.62ZM101.26 10.27C101.26 10.15 101.27 10 101.29 9.83L102.03 9.69C102.12 9.67 102.23 9.64 102.36 9.59L102.43 8.03Q102.41 7.18 102.41 6.76L102.42 6.61C102.43 6.44 102.43 6.01 102.43 5.33L102.42 5.14L102.43 4.62L102.43 4.07L102.43 3.81C102.43 3.56 102.41 3.28 102.37 2.95C102.37 2.93 102.35 2.88 102.33 2.8C102.3 2.79 102.26 2.78 102.22 2.78C102.18 2.78 102.15 2.77 102.11 2.76C101.95 2.73 101.79 2.71 101.62 2.7L101.53 2.67C101.42 2.66 101.34 2.64 101.29 2.62C101.27 2.5 101.27 2.42 101.27 2.39C101.27 2.34 101.28 2.27 101.3 2.18C101.38 2.17 101.49 2.16 101.63 2.16C101.78 2.16 101.88 2.16 101.93 2.15C102.41 2.21 102.77 2.24 103 2.24C103.11 2.24 103.21 2.25 103.32 2.25Q103.49 2.26 103.61 2.26C103.74 2.26 104.06 2.24 104.56 2.2Q104.69 2.17 104.83 2.17Q105.05 2.17 105.2 2.19C105.2 2.28 105.21 2.34 105.21 2.38Q105.21 2.48 105.18 2.62L104.14 2.8C104.05 2.84 104.01 2.9 104.01 2.98L104.03 3.21L104.04 3.31L104.03 3.59L104.02 3.8L104.02 3.85C104.02 3.89 104.02 3.93 104.02 3.97L104.02 4.76C104.02 4.84 104.02 4.89 104.02 4.93C104.02 4.95 104.02 5.02 104.01 5.13C104.01 5.2 104.01 5.27 104.01 5.34C104.01 5.4 104.01 5.55 104.02 5.78C104.13 5.8 104.23 5.82 104.3 5.82L105.18 5.84L105.6 5.84L106.67 5.84L107.7 5.81C107.83 5.81 107.98 5.8 108.13 5.77C108.13 5.63 108.14 5.28 108.14 4.72L108.16 4.44L108.12 3.38L108.08 2.94C108.07 2.91 108.04 2.89 108 2.86C107.86 2.78 107.58 2.68 107.17 2.58C107.09 2.56 107.02 2.54 106.96 2.52C106.96 2.37 106.98 2.25 107 2.16C107.09 2.16 107.14 2.15 107.16 2.15L107.74 2.16C108.1 2.21 108.47 2.23 108.85 2.23Q108.98 2.23 109.06 2.23L109.83 2.2C109.9 2.2 109.97 2.2 110.04 2.19Q110.25 2.14 110.47 2.14C110.59 2.14 110.72 2.15 110.89 2.16C110.88 2.32 110.87 2.47 110.86 2.6C110.49 2.68 110.26 2.74 110.14 2.78C110.03 2.81 109.92 2.86 109.8 2.92L109.77 3.05L109.77 3.15L109.78 3.32L109.77 3.4C109.76 3.49 109.76 3.55 109.76 3.6L109.76 3.76C109.76 3.94 109.76 4.05 109.76 4.07L109.76 4.86L109.77 5.46L109.76 6.26C109.76 6.29 109.76 6.34 109.76 6.39C109.76 6.6 109.76 6.93 109.78 7.38L109.78 8.27L109.79 9.01C109.79 9.15 109.78 9.32 109.78 9.51C109.86 9.54 109.93 9.56 110.01 9.57C110.38 9.66 110.66 9.74 110.85 9.83L110.86 10.27C110.71 10.27 110.61 10.27 110.59 10.27C110.4 10.27 110.18 10.26 109.93 10.24C109.61 10.2 109.09 10.18 108.37 10.18C108.05 10.18 107.63 10.21 107.12 10.26C107.07 10.26 107 10.25 106.92 10.22C106.92 10.03 106.93 9.9 106.95 9.82L107.4 9.71L107.88 9.62C107.93 9.61 107.99 9.59 108.07 9.57C108.11 9.23 108.13 8.67 108.14 7.88L108.14 7.35C108.12 7.13 108.11 6.87 108.11 6.56C107.96 6.55 107.8 6.54 107.64 6.53L104.89 6.5L104.84 6.5L104.8 6.49C104.77 6.49 104.74 6.49 104.7 6.5C104.6 6.5 104.51 6.5 104.44 6.5L104.28 6.5C104.2 6.5 104.12 6.52 104.02 6.55L104 7.01L104 7.1C104.01 7.21 104.01 7.28 104.01 7.32L104.01 9.25C104.01 9.36 104.02 9.47 104.03 9.59L104.09 9.62L104.96 9.77C105 9.78 105.03 9.79 105.06 9.8C105.11 9.81 105.15 9.83 105.19 9.86C105.2 9.95 105.21 10.02 105.21 10.05C105.21 10.1 105.2 10.18 105.18 10.27C105.04 10.28 104.92 10.28 104.82 10.28C104.73 10.28 104.65 10.28 104.58 10.27C104.54 10.27 104.51 10.27 104.48 10.27L103.64 10.23C103.45 10.21 103.17 10.2 102.82 10.2L102.69 10.21C102.53 10.21 102.43 10.22 102.4 10.22C102.16 10.26 101.78 10.27 101.26 10.27ZM172.81 2.62L172.8 2.14L174.21 2.23L174.84 2.23L175.08 2.23Q175.44 2.23 176.2 2.18C176.5 2.16 176.68 2.15 176.75 2.15C177.25 2.15 177.63 2.18 177.88 2.24C178.26 2.32 178.57 2.46 178.79 2.64C179.02 2.83 179.22 3.09 179.38 3.43C179.54 3.77 179.63 4.08 179.63 4.37C179.63 5.1 179.41 5.69 178.98 6.15C178.55 6.6 178 6.82 177.35 6.82C177.12 6.82 176.9 6.79 176.69 6.73C176.48 6.67 176.29 6.59 176.11 6.47C176.09 6.35 176.08 6.18 176.08 5.97C176.18 5.98 176.26 5.98 176.33 5.99C176.41 5.99 176.48 6 176.54 6C176.88 6 177.16 5.9 177.39 5.7C177.69 5.45 177.84 5.03 177.84 4.46C177.84 4.05 177.78 3.72 177.64 3.46C177.51 3.2 177.36 3.02 177.17 2.93C176.92 2.8 176.64 2.74 176.32 2.74C176.03 2.74 175.82 2.79 175.69 2.88C175.66 2.93 175.64 2.99 175.62 3.04L175.66 5.98L175.65 6.23L175.67 6.5C175.67 6.55 175.67 6.64 175.67 6.75L175.67 7.27L175.68 8.08L175.67 9.06C175.67 9.2 175.68 9.38 175.7 9.62L176.88 9.77C176.89 9.87 176.9 9.95 176.9 10.01C176.9 10.07 176.89 10.16 176.87 10.27C176.77 10.29 176.7 10.3 176.65 10.3C176.53 10.3 176.3 10.28 175.96 10.26Q175.45 10.21 174.8 10.21C174.31 10.21 173.84 10.24 173.4 10.31C173.33 10.32 173.21 10.33 173.05 10.34C173.03 10.22 173.02 10.13 173.02 10.07Q173.02 10.01 173.04 9.89L173.4 9.77C173.64 9.69 173.86 9.59 174.04 9.48C174.08 9.36 174.09 9.25 174.09 9.15C174.09 9.11 174.09 9.06 174.09 9C174.08 8.88 174.08 8.69 174.08 8.46L174.06 6.7L174 4.72C173.97 3.78 173.95 3.27 173.93 3.19C173.91 3.07 173.86 2.98 173.79 2.91C173.73 2.84 173.61 2.79 173.46 2.76C173.13 2.7 172.91 2.65 172.81 2.62ZM191.3 8.03Q194.45 4.67 195.42 3.5C195.42 3.19 195.41 3.01 195.39 2.97C195.37 2.92 195.3 2.86 195.19 2.81C195.08 2.75 194.87 2.68 194.55 2.6C194.39 2.57 194.29 2.54 194.25 2.52C194.26 2.36 194.27 2.24 194.29 2.16L194.46 2.15C194.79 2.15 195.01 2.16 195.12 2.17C195.43 2.21 195.74 2.23 196.06 2.23C196.56 2.23 197.02 2.21 197.44 2.17Q197.67 2.14 197.81 2.14C197.89 2.14 198.02 2.15 198.18 2.16C198.17 2.33 198.16 2.47 198.15 2.6C197.7 2.7 197.4 2.79 197.26 2.85C197.12 2.91 197.06 3.01 197.06 3.17L197.06 4.07L197.06 5.46L197.05 6.26L197.07 7.38L197.07 8.27L197.08 9.01C197.08 9.16 197.07 9.32 197.07 9.51C197.15 9.54 197.23 9.56 197.3 9.57C197.67 9.66 197.95 9.74 198.14 9.83L198.15 10.27L197.9 10.27C197.83 10.27 197.76 10.27 197.67 10.26L197.23 10.24Q196.74 10.18 195.68 10.18C195.32 10.18 195.04 10.19 194.84 10.22Q194.47 10.26 194.39 10.26C194.35 10.26 194.29 10.25 194.21 10.22C194.22 10.02 194.23 9.89 194.24 9.82L194.64 9.72L194.87 9.67C195.12 9.63 195.28 9.6 195.36 9.57Q195.44 9.1 195.44 7.35L195.43 5.51L195.44 4.34L191.3 8.85C191.31 9.32 191.31 9.57 191.32 9.59C191.34 9.62 191.41 9.64 191.53 9.65L191.91 9.71C192.25 9.78 192.44 9.83 192.48 9.86C192.49 9.95 192.5 10.02 192.5 10.05C192.5 10.1 192.49 10.18 192.47 10.27L192.11 10.28C191.96 10.28 191.75 10.27 191.47 10.24L191.03 10.24L190.73 10.22L190.19 10.2C190.02 10.2 189.81 10.21 189.56 10.24C189.31 10.26 188.97 10.27 188.55 10.27C188.55 10.15 188.56 10 188.58 9.83C188.62 9.82 188.7 9.81 188.83 9.79L189.09 9.74C189.33 9.7 189.52 9.65 189.65 9.59Q189.71 8.41 189.71 7.53L189.71 6.7L189.72 4.58C189.72 3.94 189.7 3.39 189.66 2.94C189.66 2.91 189.64 2.87 189.62 2.8C189.59 2.79 189.56 2.78 189.51 2.78C189.48 2.78 189.44 2.77 189.4 2.76C189.22 2.73 189.05 2.71 188.91 2.7L188.82 2.67C188.71 2.66 188.63 2.64 188.58 2.62C188.57 2.5 188.56 2.42 188.56 2.39C188.56 2.34 188.57 2.27 188.6 2.18C188.68 2.16 188.77 2.15 188.87 2.15C189.16 2.15 189.5 2.17 189.88 2.21C190.23 2.24 190.51 2.26 190.74 2.26C191.06 2.26 191.35 2.25 191.62 2.22C191.95 2.18 192.15 2.16 192.21 2.16C192.28 2.16 192.38 2.17 192.49 2.19L192.5 2.38C192.5 2.45 192.49 2.53 192.47 2.62L191.43 2.8C191.37 2.81 191.34 2.9 191.33 3.09C191.31 3.28 191.31 3.5 191.31 3.76L191.31 4.06L191.31 4.62L191.31 4.94L191.3 5.37C191.3 5.42 191.3 5.52 191.31 5.66C191.32 5.85 191.32 6.04 191.32 6.22C191.32 6.37 191.32 6.52 191.31 6.67L191.29 7L191.3 8.03ZM208.61 10.27C208.61 10.15 208.62 10 208.65 9.83L209.39 9.69C209.48 9.67 209.59 9.64 209.71 9.59L209.79 8.03C209.77 7.47 209.77 7.04 209.77 6.76L209.77 6.61C209.78 6.44 209.79 6.01 209.79 5.33L209.78 5.14L209.79 4.62L209.78 4.07L209.78 3.81Q209.78 3.44 209.73 2.95C209.73 2.93 209.71 2.88 209.68 2.8C209.65 2.79 209.62 2.78 209.58 2.78C209.54 2.78 209.5 2.77 209.46 2.76C209.31 2.73 209.15 2.71 208.97 2.7L208.88 2.67C208.78 2.66 208.7 2.64 208.64 2.62C208.63 2.5 208.62 2.42 208.62 2.39C208.62 2.34 208.64 2.27 208.66 2.18C208.74 2.17 208.85 2.16 208.99 2.16C209.13 2.16 209.23 2.16 209.29 2.15C209.77 2.21 210.12 2.24 210.36 2.24C210.46 2.24 210.57 2.25 210.68 2.25Q210.84 2.26 210.97 2.26C211.1 2.26 211.41 2.24 211.92 2.2C212 2.18 212.09 2.17 212.19 2.17Q212.41 2.17 212.56 2.19C212.56 2.28 212.56 2.34 212.56 2.38C212.56 2.45 212.55 2.53 212.54 2.62L211.5 2.8C211.41 2.84 211.37 2.9 211.37 2.98L211.38 3.21L211.39 3.31L211.38 3.59L211.37 3.8L211.37 3.85C211.38 3.89 211.38 3.93 211.38 3.97L211.37 4.76C211.38 4.84 211.38 4.89 211.38 4.93C211.38 4.95 211.38 5.02 211.37 5.13C211.36 5.2 211.36 5.27 211.36 5.34C211.36 5.4 211.37 5.55 211.38 5.78C211.49 5.8 211.58 5.82 211.66 5.82L212.53 5.84L212.96 5.84L214.02 5.84L215.06 5.81C215.19 5.81 215.33 5.8 215.48 5.77C215.49 5.63 215.5 5.28 215.5 4.72L215.51 4.44L215.48 3.38L215.43 2.94C215.42 2.91 215.4 2.89 215.35 2.86C215.21 2.78 214.94 2.68 214.52 2.58C214.45 2.56 214.38 2.54 214.31 2.52C214.32 2.37 214.33 2.25 214.36 2.16C214.45 2.16 214.5 2.15 214.52 2.15L215.09 2.16Q215.64 2.23 216.21 2.23Q216.34 2.23 216.42 2.23L217.18 2.2C217.26 2.2 217.32 2.2 217.39 2.19C217.53 2.16 217.68 2.14 217.83 2.14C217.94 2.14 218.08 2.15 218.24 2.16C218.24 2.32 218.23 2.47 218.21 2.6C217.85 2.68 217.61 2.74 217.5 2.78C217.39 2.81 217.28 2.86 217.16 2.92L217.13 3.05L217.13 3.15L217.13 3.32L217.13 3.4C217.12 3.49 217.11 3.55 217.11 3.6L217.11 3.76Q217.12 4.04 217.12 4.07L217.12 4.86L217.13 5.46L217.11 6.26Q217.11 6.31 217.11 6.39Q217.11 6.7 217.13 7.38L217.13 8.27L217.14 9.01C217.14 9.15 217.14 9.32 217.13 9.51C217.21 9.54 217.29 9.56 217.36 9.57C217.73 9.66 218.01 9.74 218.2 9.83L218.22 10.27C218.06 10.27 217.97 10.27 217.94 10.27C217.75 10.27 217.54 10.26 217.29 10.24C216.97 10.2 216.45 10.18 215.73 10.18C215.41 10.18 214.99 10.21 214.48 10.26C214.42 10.26 214.35 10.25 214.28 10.22C214.28 10.03 214.29 9.9 214.31 9.82L214.76 9.71L215.24 9.62C215.29 9.61 215.35 9.59 215.42 9.57C215.47 9.23 215.49 8.67 215.49 7.88L215.5 7.35C215.48 7.13 215.46 6.87 215.46 6.56C215.32 6.55 215.16 6.54 214.99 6.53L212.25 6.5L212.19 6.5L212.15 6.49C212.13 6.49 212.09 6.49 212.06 6.5Q211.91 6.5 211.8 6.5L211.63 6.5C211.56 6.5 211.47 6.52 211.38 6.55L211.36 7.01L211.36 7.1C211.36 7.21 211.37 7.28 211.37 7.32L211.37 9.25C211.37 9.36 211.37 9.47 211.38 9.59L211.44 9.62L212.31 9.77C212.36 9.78 212.39 9.79 212.41 9.8C212.46 9.81 212.51 9.83 212.54 9.86C212.56 9.95 212.56 10.02 212.56 10.05C212.56 10.1 212.55 10.18 212.54 10.27C212.4 10.28 212.28 10.28 212.18 10.28C212.09 10.28 212.01 10.28 211.93 10.27C211.9 10.27 211.87 10.27 211.83 10.27L211 10.23C210.8 10.21 210.53 10.2 210.17 10.2L210.05 10.21C209.88 10.21 209.79 10.22 209.76 10.22C209.52 10.26 209.13 10.27 208.61 10.27ZM219.09 10.27C219.09 10.15 219.1 10 219.12 9.83L219.86 9.69C219.95 9.67 220.06 9.64 220.19 9.59L220.26 8.03C220.25 7.47 220.24 7.04 220.24 6.76L220.25 6.61C220.26 6.44 220.26 6.01 220.26 5.33L220.25 5.14L220.26 4.62L220.26 4.07L220.26 3.81C220.26 3.56 220.24 3.28 220.21 2.95C220.2 2.93 220.19 2.88 220.16 2.8C220.13 2.79 220.09 2.78 220.05 2.78C220.02 2.78 219.98 2.77 219.94 2.76C219.79 2.73 219.62 2.71 219.45 2.7L219.36 2.67C219.25 2.66 219.17 2.64 219.12 2.62C219.11 2.5 219.1 2.42 219.1 2.39C219.1 2.34 219.11 2.27 219.14 2.18Q219.25 2.16 219.47 2.16C219.61 2.16 219.71 2.16 219.76 2.15C220.24 2.21 220.6 2.24 220.83 2.24C220.94 2.24 221.04 2.25 221.15 2.25C221.26 2.26 221.36 2.26 221.44 2.26C221.57 2.26 221.89 2.24 222.39 2.2C222.48 2.18 222.57 2.17 222.66 2.17Q222.88 2.17 223.03 2.19C223.04 2.28 223.04 2.34 223.04 2.38C223.04 2.45 223.03 2.53 223.01 2.62L221.97 2.8C221.89 2.84 221.84 2.9 221.84 2.98L221.86 3.21L221.87 3.31L221.86 3.59L221.85 3.8L221.85 3.85C221.85 3.89 221.85 3.93 221.85 3.97L221.85 4.76C221.85 4.84 221.85 4.89 221.85 4.93C221.85 4.95 221.85 5.02 221.84 5.13C221.84 5.2 221.84 5.27 221.84 5.34C221.84 5.4 221.84 5.55 221.85 5.78C221.96 5.8 222.06 5.82 222.13 5.82L223.01 5.84L223.43 5.84L224.5 5.84L225.53 5.81C225.67 5.81 225.81 5.8 225.96 5.77C225.97 5.63 225.97 5.28 225.97 4.72L225.99 4.44L225.95 3.38L225.91 2.94C225.9 2.91 225.87 2.89 225.83 2.86C225.69 2.78 225.41 2.68 225 2.58C224.92 2.56 224.85 2.54 224.79 2.52C224.79 2.37 224.81 2.25 224.83 2.16Q224.96 2.15 224.99 2.15L225.57 2.16C225.93 2.21 226.31 2.23 226.68 2.23C226.77 2.23 226.84 2.23 226.89 2.23L227.66 2.2C227.73 2.2 227.8 2.2 227.87 2.19C228.01 2.16 228.15 2.14 228.3 2.14C228.42 2.14 228.56 2.15 228.72 2.16C228.71 2.32 228.7 2.47 228.69 2.6C228.33 2.68 228.09 2.74 227.97 2.78C227.86 2.81 227.75 2.86 227.64 2.92L227.6 3.05L227.6 3.15L227.61 3.32L227.6 3.4C227.59 3.49 227.59 3.55 227.59 3.6L227.59 3.76C227.59 3.94 227.59 4.05 227.59 4.07L227.59 4.86L227.6 5.46L227.59 6.26C227.59 6.29 227.59 6.34 227.59 6.39C227.59 6.6 227.59 6.93 227.61 7.38L227.61 8.27L227.62 9.01C227.62 9.15 227.61 9.32 227.61 9.51C227.69 9.54 227.77 9.56 227.84 9.57C228.21 9.66 228.49 9.74 228.68 9.83L228.69 10.27C228.54 10.27 228.44 10.27 228.42 10.27C228.23 10.27 228.01 10.26 227.77 10.24C227.44 10.2 226.92 10.18 226.21 10.18C225.88 10.18 225.46 10.21 224.95 10.26C224.9 10.26 224.83 10.25 224.75 10.22C224.76 10.03 224.77 9.9 224.78 9.82L225.24 9.71L225.71 9.62C225.76 9.61 225.82 9.59 225.9 9.57C225.94 9.23 225.97 8.67 225.97 7.88L225.97 7.35C225.95 7.13 225.94 6.87 225.94 6.56C225.79 6.55 225.64 6.54 225.47 6.53L222.72 6.5L222.67 6.5L222.63 6.49C222.6 6.49 222.57 6.49 222.53 6.5C222.43 6.5 222.35 6.5 222.27 6.5L222.11 6.5C222.03 6.5 221.95 6.52 221.85 6.55L221.83 7.01L221.83 7.1C221.84 7.21 221.84 7.28 221.84 7.32L221.84 9.25C221.84 9.36 221.85 9.47 221.86 9.59L221.92 9.62L222.79 9.77C222.83 9.78 222.87 9.79 222.89 9.8C222.94 9.81 222.98 9.83 223.02 9.86C223.03 9.95 223.04 10.02 223.04 10.05C223.04 10.1 223.03 10.18 223.01 10.27C222.87 10.28 222.75 10.28 222.65 10.28C222.57 10.28 222.49 10.28 222.41 10.27C222.37 10.27 222.34 10.27 222.31 10.27L221.48 10.23C221.28 10.21 221 10.2 220.65 10.2L220.52 10.21C220.36 10.21 220.26 10.22 220.23 10.22C219.99 10.26 219.61 10.27 219.09 10.27ZM263.61 2.62L263.6 2.14L265.01 2.23L265.65 2.23L265.88 2.23C266.12 2.23 266.5 2.21 267.01 2.18C267.3 2.16 267.48 2.15 267.56 2.15C268.05 2.15 268.43 2.18 268.68 2.24C269.07 2.32 269.37 2.46 269.6 2.64C269.82 2.83 270.02 3.09 270.18 3.43C270.35 3.77 270.43 4.08 270.43 4.37C270.43 5.1 270.21 5.69 269.78 6.15C269.35 6.6 268.81 6.82 268.15 6.82C267.92 6.82 267.7 6.79 267.49 6.73C267.29 6.67 267.09 6.59 266.91 6.47Q266.88 6.29 266.88 5.97C266.98 5.98 267.06 5.98 267.14 5.99C267.22 5.99 267.29 6 267.34 6C267.68 6 267.96 5.9 268.19 5.7Q268.22 5.68 268.24 5.65Q268.65 5.27 268.65 4.46C268.65 4.05 268.58 3.72 268.44 3.46C268.31 3.2 268.16 3.02 267.98 2.93C267.73 2.8 267.44 2.74 267.13 2.74C266.83 2.74 266.62 2.79 266.49 2.88C266.46 2.93 266.44 2.99 266.42 3.04L266.46 5.98L266.45 6.23L266.47 6.5C266.47 6.55 266.48 6.64 266.48 6.75L266.48 7.27L266.48 8.08L266.47 9.06C266.47 9.2 266.48 9.38 266.51 9.62L267.68 9.77C267.7 9.87 267.71 9.95 267.71 10.01C267.71 10.07 267.7 10.16 267.68 10.27C267.58 10.29 267.5 10.3 267.45 10.3C267.33 10.3 267.1 10.28 266.76 10.26Q266.25 10.21 265.6 10.21C265.11 10.21 264.65 10.24 264.21 10.31C264.13 10.32 264.01 10.33 263.85 10.34C263.84 10.22 263.83 10.13 263.83 10.07C263.83 10.03 263.83 9.97 263.84 9.89L264.2 9.77C264.45 9.69 264.66 9.59 264.84 9.48C264.88 9.36 264.9 9.25 264.9 9.15C264.9 9.11 264.9 9.06 264.89 9C264.89 8.88 264.89 8.69 264.89 8.46L264.87 6.7L264.8 4.72C264.78 3.78 264.75 3.27 264.74 3.19C264.71 3.07 264.66 2.98 264.6 2.91C264.53 2.84 264.42 2.79 264.26 2.76C263.93 2.7 263.72 2.65 263.61 2.62ZM287.96 2.62L287.96 2.14L289.37 2.23L290 2.23L290.23 2.23C290.48 2.23 290.85 2.21 291.36 2.18C291.66 2.16 291.84 2.15 291.91 2.15C292.41 2.15 292.78 2.18 293.04 2.24C293.42 2.32 293.73 2.46 293.95 2.64C294.18 2.83 294.38 3.09 294.54 3.43C294.7 3.77 294.79 4.08 294.79 4.37Q294.79 5.19 294.42 5.78L294.42 5.78Q294.3 5.98 294.14 6.15C293.71 6.6 293.16 6.82 292.51 6.82C292.28 6.82 292.06 6.79 291.85 6.73C291.64 6.67 291.45 6.59 291.27 6.47C291.25 6.35 291.24 6.18 291.24 5.97C291.33 5.98 291.42 5.98 291.49 5.99Q291.61 6 291.7 6C292.04 6 292.32 5.9 292.55 5.7Q292.57 5.68 292.6 5.65Q293 5.27 293 4.46C293 4.05 292.93 3.72 292.8 3.46C292.67 3.2 292.51 3.02 292.33 2.93Q291.96 2.74 291.48 2.74C291.19 2.74 290.98 2.79 290.85 2.88C290.82 2.93 290.79 2.99 290.78 3.04L290.82 5.98L290.81 6.23L290.83 6.5C290.83 6.55 290.83 6.64 290.83 6.75L290.83 7.27L290.84 8.08L290.83 9.06C290.83 9.2 290.84 9.38 290.86 9.62L292.04 9.77C292.05 9.87 292.06 9.95 292.06 10.01C292.06 10.07 292.05 10.16 292.03 10.27C291.93 10.29 291.86 10.3 291.81 10.3C291.69 10.3 291.45 10.28 291.12 10.26Q290.61 10.21 289.96 10.21C289.47 10.21 289 10.24 288.56 10.31C288.49 10.32 288.37 10.33 288.21 10.34C288.19 10.22 288.18 10.13 288.18 10.07C288.18 10.03 288.19 9.97 288.2 9.89L288.56 9.77C288.8 9.69 289.02 9.59 289.2 9.48C289.24 9.36 289.25 9.25 289.25 9.15C289.25 9.11 289.25 9.06 289.25 9C289.24 8.88 289.24 8.69 289.24 8.46L289.22 6.7L289.16 4.72C289.13 3.78 289.11 3.27 289.09 3.19C289.07 3.07 289.02 2.98 288.95 2.91C288.89 2.84 288.77 2.79 288.62 2.76C288.29 2.7 288.07 2.65 287.96 2.62ZM232.36 5.64Q233 5.59 233.53 5.59C234.65 5.59 235.47 5.81 236 6.24Q236.47 6.63 236.66 7.12Q236.79 7.46 236.79 7.85C236.79 8.6 236.49 9.2 235.91 9.66C235.32 10.1 234.59 10.32 233.71 10.32C233.55 10.32 233.27 10.31 232.89 10.28C232.63 10.26 232.31 10.25 231.93 10.25C231.77 10.25 231.46 10.26 231 10.29L229.62 10.35L229.63 9.85C229.71 9.82 229.82 9.8 229.97 9.78Q230.4 9.72 230.6 9.62C230.7 9.52 230.75 9.09 230.75 8.31C230.75 6.84 230.74 5.57 230.72 4.49C230.71 3.42 230.67 2.85 230.63 2.8C230.58 2.74 230.45 2.7 230.23 2.69C230.14 2.69 229.95 2.66 229.65 2.62L229.63 2.18L229.89 2.17C230.21 2.17 230.64 2.2 231.18 2.24L231.67 2.28C231.79 2.28 231.97 2.27 232.21 2.25L232.55 2.22C232.78 2.2 232.94 2.19 233.03 2.18C233.17 2.16 233.32 2.15 233.49 2.15L233.49 2.28L233.48 2.49C233.48 2.52 233.48 2.55 233.48 2.6C232.87 2.72 232.54 2.82 232.46 2.89C232.39 2.95 232.35 3.14 232.35 3.45L232.36 3.76C232.37 3.92 232.37 4.12 232.37 4.39L232.36 5.64ZM237.28 10.3L237.28 9.85C237.36 9.82 237.49 9.79 237.67 9.74C237.93 9.68 238.12 9.61 238.25 9.54C238.32 9.41 238.35 9.23 238.35 9L238.35 8.26L238.36 6.83L238.35 6.5C238.38 5.67 238.4 5.24 238.4 5.22L238.38 4.39L238.4 4.05L238.37 3.34L238.37 3.07Q238.36 3 238.32 2.87C238.16 2.79 237.9 2.74 237.54 2.72C237.45 2.71 237.38 2.71 237.33 2.7L237.31 2.15L239 2.22C239.21 2.23 239.34 2.23 239.39 2.23Q239.74 2.23 240.51 2.18C240.8 2.16 240.98 2.15 241.06 2.15Q241.06 2.27 241.06 2.35C241.06 2.42 241.06 2.51 241.05 2.62C240.89 2.68 240.71 2.74 240.51 2.79Q240.2 2.87 240.01 2.95C239.99 3.06 239.97 3.21 239.97 3.42C239.97 3.6 239.98 3.74 239.99 3.86C239.98 4.56 239.97 5.1 239.97 5.48L239.98 7.13L239.96 7.97L239.97 9.22L239.97 9.46C239.97 9.49 239.98 9.54 239.99 9.61C240.23 9.66 240.45 9.7 240.65 9.72C240.68 9.72 240.8 9.74 241.01 9.77C241.02 9.89 241.03 10 241.03 10.08C241.03 10.13 241.03 10.2 241.03 10.29C240.97 10.29 240.94 10.3 240.91 10.3C240.78 10.31 240.71 10.31 240.69 10.31C240.66 10.31 240.61 10.31 240.54 10.29C240.48 10.28 240.22 10.26 239.75 10.21L238.7 10.19C238.49 10.19 238.19 10.21 237.79 10.26C237.53 10.28 237.36 10.3 237.28 10.3ZM287.67 4.31L287.42 4.32C287.37 4.32 287.3 4.31 287.22 4.31C287.18 4.23 287.14 4.1 287.08 3.94L286.85 3.49C286.75 3.3 286.62 3.1 286.46 2.92C286.4 2.89 286.28 2.88 286.08 2.87L284.73 2.79L283.93 2.8L283.58 2.8C283.55 2.87 283.54 2.95 283.54 3.06L283.54 6.01L283.53 6.41L283.55 6.78L283.57 7.24C283.57 7.36 283.56 7.55 283.55 7.82Q283.54 8.02 283.54 8.15L283.56 8.66L283.55 8.86C283.57 9.05 283.57 9.18 283.57 9.27Q283.57 9.36 283.6 9.45Q283.6 9.47 283.61 9.49C283.65 9.51 283.76 9.55 283.97 9.61L284.16 9.66C284.28 9.69 284.37 9.72 284.45 9.72C284.59 9.74 284.67 9.76 284.71 9.81Q284.77 9.86 284.77 10.04C284.77 10.22 284.72 10.31 284.6 10.31C284.56 10.31 284.39 10.3 284.09 10.27L283.77 10.26L283.7 10.25C283.55 10.24 283.43 10.24 283.34 10.24L282.71 10.25L281.86 10.25L281.06 10.29L280.84 10.29C280.79 10.29 280.76 10.28 280.72 10.26C280.72 10.2 280.72 10.15 280.72 10.11C280.72 10.05 280.72 9.97 280.73 9.86C280.77 9.82 280.86 9.77 281.02 9.74C281.1 9.72 281.19 9.68 281.28 9.64L281.51 9.56C281.69 9.49 281.79 9.45 281.82 9.42C281.84 9.39 281.87 9.28 281.89 9.09C281.92 8.89 281.93 8.75 281.93 8.67L281.91 7.35L281.9 6.55L281.91 5.9L281.91 5.28C281.91 4.96 281.89 4.51 281.87 3.95L281.88 3.16Q281.88 2.94 281.82 2.88C281.79 2.84 281.69 2.82 281.54 2.82C281.48 2.82 281.32 2.8 281.06 2.75C280.8 2.7 280.66 2.67 280.63 2.65Q280.59 2.57 280.59 2.28C280.59 2.24 280.59 2.2 280.6 2.15L280.76 2.15C280.84 2.15 281.01 2.16 281.28 2.18L282.99 2.25L285.32 2.23L286.11 2.22C286.64 2.22 287.12 2.25 287.56 2.31C287.63 2.38 287.66 2.49 287.66 2.65L287.67 4.31ZM303.31 10.29L303.33 9.87C303.82 9.8 304.14 9.69 304.27 9.55C304.35 9.45 304.42 9.19 304.47 8.77L304.55 6.54L304.64 4.27C304.64 4.14 304.65 4.05 304.65 4.02C304.65 3.44 304.61 3.1 304.55 3C304.48 2.91 304.23 2.82 303.79 2.74C303.68 2.71 303.59 2.69 303.53 2.67C303.52 2.57 303.52 2.48 303.52 2.41L303.52 2.22C303.66 2.2 303.84 2.2 304.03 2.2L305.76 2.26C305.8 2.26 305.86 2.27 305.93 2.27L306.2 2.28C306.27 2.37 306.34 2.48 306.4 2.62Q306.62 3.07 306.98 3.96L307.05 4.12L307.97 6.25C307.99 6.3 308.02 6.37 308.06 6.46Q308.15 6.69 308.25 6.9C308.31 7.03 308.38 7.18 308.44 7.34C308.51 7.5 308.58 7.65 308.64 7.77C308.7 7.67 308.75 7.56 308.8 7.44C308.96 7.06 309.11 6.7 309.26 6.38C309.52 5.82 309.88 4.95 310.32 3.78C310.39 3.59 310.51 3.31 310.67 2.94C310.84 2.56 310.93 2.36 310.94 2.33C310.98 2.3 311.05 2.28 311.16 2.28C311.2 2.28 311.26 2.28 311.34 2.28C311.54 2.27 311.79 2.26 312.08 2.25C312.49 2.24 312.82 2.23 313.07 2.21Q313.45 2.17 313.5 2.17C313.54 2.17 313.58 2.18 313.64 2.18C313.64 2.24 313.65 2.29 313.65 2.32L313.63 2.51C313.63 2.55 313.63 2.6 313.63 2.68C313.26 2.74 312.96 2.83 312.72 2.94C312.56 3.03 312.48 3.13 312.48 3.25L312.48 3.35L312.58 5.26Q312.6 5.53 312.68 7.87C312.69 8.22 312.71 8.67 312.75 9.2C312.76 9.27 312.76 9.32 312.76 9.36C312.77 9.46 312.79 9.53 312.82 9.56C312.86 9.58 313.22 9.71 313.89 9.92C313.89 9.98 313.89 10.03 313.89 10.07C313.89 10.16 313.89 10.24 313.89 10.33C313.78 10.33 313.51 10.31 313.08 10.26C312.65 10.21 312.25 10.19 311.88 10.19Q311.02 10.19 310.21 10.26C310.14 10.27 310.07 10.28 310 10.28L310.01 9.85C310.18 9.78 310.39 9.73 310.66 9.68C310.85 9.65 310.97 9.59 311.02 9.51C311.07 9.43 311.1 9.21 311.1 8.85C311.1 8.71 311.1 8.59 311.09 8.48C311.07 8.05 311.06 7.44 311.06 6.66L310.96 4.45C310.94 4.14 310.93 3.92 310.91 3.8L309.44 7.38C309.41 7.46 309.35 7.58 309.28 7.74C309.19 7.94 309.13 8.08 309.1 8.16Q308.64 9.32 308.47 9.93C308.43 10.03 308.39 10.17 308.32 10.34L307.87 10.33L307.55 9.37C307.46 9.12 307.29 8.74 307.07 8.23C306.93 7.94 306.83 7.7 306.75 7.52C306.72 7.44 306.69 7.38 306.68 7.35L306.6 7.19C306.6 7.16 306.59 7.14 306.59 7.13L305.71 5.12L305.17 3.9L305.12 6.86L305.08 8.78C305.08 9.1 305.13 9.32 305.24 9.46C305.36 9.59 305.6 9.71 305.97 9.81L306.26 9.88L306.26 10.34C306.03 10.33 305.78 10.32 305.52 10.29C305.26 10.25 304.91 10.24 304.48 10.24C304.39 10.24 304 10.26 303.31 10.29ZM314.41 10.29L314.43 9.87C314.92 9.8 315.24 9.69 315.37 9.55C315.46 9.45 315.53 9.19 315.57 8.77L315.65 6.54L315.74 4.27C315.75 4.14 315.75 4.05 315.75 4.02C315.75 3.44 315.72 3.1 315.65 3C315.59 2.91 315.33 2.82 314.89 2.74C314.78 2.71 314.7 2.69 314.63 2.67C314.62 2.57 314.62 2.48 314.62 2.41L314.62 2.22C314.77 2.2 314.94 2.2 315.13 2.2L316.87 2.26C316.91 2.26 316.96 2.27 317.03 2.27L317.3 2.28C317.37 2.37 317.44 2.48 317.51 2.62Q317.72 3.07 318.08 3.96L318.15 4.12L319.07 6.25C319.09 6.3 319.12 6.37 319.17 6.46C319.23 6.61 319.29 6.76 319.35 6.9C319.41 7.03 319.48 7.18 319.54 7.34C319.62 7.5 319.68 7.65 319.75 7.77C319.8 7.67 319.85 7.56 319.91 7.44C320.06 7.06 320.22 6.7 320.37 6.38C320.63 5.82 320.98 4.95 321.42 3.78C321.5 3.59 321.61 3.31 321.77 2.94C321.94 2.56 322.03 2.36 322.04 2.33C322.08 2.3 322.15 2.28 322.26 2.28C322.3 2.28 322.36 2.28 322.44 2.28C322.65 2.27 322.89 2.26 323.18 2.25C323.59 2.24 323.93 2.23 324.17 2.21Q324.55 2.17 324.6 2.17C324.64 2.17 324.69 2.18 324.74 2.18C324.75 2.24 324.75 2.29 324.75 2.32L324.74 2.51C324.74 2.55 324.73 2.6 324.73 2.68C324.36 2.74 324.06 2.83 323.82 2.94C323.66 3.03 323.58 3.13 323.58 3.25L323.58 3.35L323.68 5.26C323.69 5.44 323.73 6.31 323.78 7.87C323.79 8.22 323.82 8.67 323.85 9.2C323.86 9.27 323.87 9.32 323.87 9.36C323.87 9.46 323.89 9.53 323.93 9.56C323.96 9.58 324.32 9.71 324.99 9.92C324.99 9.98 325 10.03 325 10.07C325 10.16 324.99 10.24 324.99 10.33C324.88 10.33 324.62 10.31 324.19 10.26C323.76 10.21 323.35 10.19 322.98 10.19C322.41 10.19 321.85 10.21 321.31 10.26C321.24 10.27 321.17 10.28 321.1 10.28L321.12 9.85C321.28 9.78 321.49 9.73 321.76 9.68C321.95 9.65 322.07 9.59 322.12 9.51C322.17 9.43 322.2 9.21 322.2 8.85C322.2 8.71 322.2 8.59 322.19 8.48C322.17 8.05 322.16 7.44 322.16 6.66L322.06 4.45C322.04 4.14 322.03 3.92 322.02 3.8L320.54 7.38Q320.49 7.5 320.38 7.74C320.29 7.94 320.23 8.08 320.2 8.16Q319.75 9.32 319.57 9.93C319.54 10.03 319.49 10.17 319.43 10.34L318.97 10.33L318.65 9.37C318.56 9.12 318.4 8.74 318.17 8.23C318.03 7.94 317.93 7.7 317.85 7.52C317.82 7.44 317.79 7.38 317.78 7.35L317.71 7.19C317.7 7.16 317.7 7.14 317.69 7.13L316.81 5.12L316.27 3.9L316.22 6.86L316.18 8.78C316.18 9.1 316.24 9.32 316.35 9.46C316.46 9.59 316.7 9.71 317.07 9.81L317.36 9.88L317.36 10.34C317.13 10.33 316.88 10.32 316.62 10.29C316.36 10.25 316.01 10.24 315.58 10.24C315.49 10.24 315.1 10.26 314.41 10.29ZM241.56 2.2C241.71 2.19 241.82 2.19 241.91 2.19C242 2.19 242.08 2.19 242.14 2.2L242.46 2.22L242.6 2.22C242.62 2.22 242.7 2.23 242.82 2.25Q243.15 2.3 243.77 2.3C244.28 2.3 244.77 2.27 245.22 2.2C245.29 2.21 245.36 2.21 245.43 2.22C245.42 2.36 245.42 2.5 245.42 2.64C245.36 2.66 245.32 2.68 245.29 2.69L244.71 2.8C244.66 2.81 244.6 2.83 244.51 2.87C244.52 2.94 244.53 3 244.54 3.03C244.83 3.55 245.1 3.98 245.35 4.33L245.92 5.2L245.99 5.3L246.32 4.86L247.06 3.73C247.23 3.45 247.35 3.24 247.39 3.1C247.41 3.06 247.42 3.02 247.42 2.99L247.4 2.89C247.32 2.84 247.26 2.81 247.21 2.8C247.18 2.79 247.11 2.79 246.99 2.79C246.78 2.78 246.6 2.76 246.44 2.74C246.42 2.65 246.42 2.59 246.42 2.55C246.42 2.53 246.42 2.48 246.43 2.4C246.43 2.37 246.43 2.32 246.44 2.25C246.48 2.25 246.52 2.24 246.55 2.22C246.91 2.25 247.64 2.26 248.75 2.26C248.89 2.26 249.02 2.25 249.13 2.24C249.24 2.23 249.31 2.22 249.33 2.22C249.37 2.22 249.43 2.23 249.51 2.24C249.53 2.32 249.54 2.4 249.54 2.47C249.54 2.51 249.54 2.57 249.53 2.67L248.62 2.87C248.55 2.9 248.46 2.96 248.37 3.05C248.28 3.13 248.04 3.44 247.64 3.99L246.78 5.16C246.69 5.3 246.6 5.42 246.54 5.51C246.47 5.59 246.42 5.67 246.36 5.73L246.45 5.86C246.67 6.19 246.89 6.52 247.12 6.86L248.29 8.7C248.6 9.19 248.83 9.49 248.98 9.6C249.09 9.68 249.36 9.76 249.79 9.85C249.81 9.93 249.81 9.99 249.81 10.01C249.81 10.03 249.8 10.11 249.78 10.24L249.8 10.3L249.38 10.31C249.29 10.31 249.11 10.3 248.85 10.28L248.12 10.23L248.04 10.22Q247.92 10.21 247.87 10.21C247.62 10.21 247.33 10.23 246.99 10.26C246.65 10.28 246.4 10.3 246.25 10.3C246.14 10.3 245.98 10.3 245.74 10.29L245.74 10.12Q245.74 10.01 245.76 9.89C246.06 9.81 246.38 9.74 246.71 9.69C246.75 9.66 246.8 9.63 246.86 9.6L246.86 9.53C246.86 9.49 246.86 9.45 246.84 9.42C246.82 9.34 246.76 9.22 246.68 9.07C246.5 8.78 246.27 8.43 245.97 8.02L245.27 7.02C245.18 7.13 244.86 7.6 244.32 8.41C244.15 8.62 244 8.84 243.88 9.09C243.8 9.24 243.76 9.34 243.76 9.38L243.77 9.43L243.85 9.54C243.99 9.61 244.17 9.69 244.39 9.76C244.61 9.83 244.75 9.88 244.81 9.91L244.85 10.19L244.85 10.22L244.83 10.29C244.72 10.31 244.64 10.32 244.6 10.32C244.54 10.32 244.35 10.3 244.04 10.27C243.93 10.26 243.74 10.25 243.46 10.24L243.18 10.24L241.88 10.3C241.85 10.3 241.76 10.3 241.6 10.29L241.58 10.01C241.58 9.97 241.58 9.92 241.59 9.85C241.66 9.84 241.75 9.83 241.85 9.82C242.16 9.79 242.39 9.73 242.56 9.64C242.62 9.61 242.75 9.48 242.93 9.26C243.21 8.94 243.46 8.62 243.69 8.3C243.82 8.12 243.92 7.98 243.99 7.89C244.2 7.59 244.52 7.15 244.93 6.58L244.58 6.03C244.33 5.7 244.14 5.42 244 5.21L243.65 4.67C243.52 4.43 243.43 4.29 243.38 4.23C243.2 3.97 242.97 3.63 242.71 3.19C242.61 3.03 242.49 2.92 242.33 2.84C242.18 2.77 241.93 2.72 241.58 2.7L241.58 2.6C241.58 2.56 241.58 2.52 241.58 2.5C241.56 2.42 241.55 2.37 241.55 2.35L241.56 2.2ZM76.76 2.2C76.99 2.21 77.18 2.23 77.35 2.25Q77.82 2.32 78.43 2.32C78.57 2.32 78.94 2.31 79.52 2.28C80.4 2.25 81.2 2.23 81.91 2.23L82.98 2.22C83.22 2.22 83.57 2.25 84.04 2.31Q84.04 2.31 84.04 2.31L84.05 2.31Q84.15 2.44 84.15 2.65L84.15 3.94L84.16 4.19C84.16 4.22 84.16 4.26 84.15 4.31L83.91 4.32C83.88 4.32 83.81 4.31 83.71 4.31C83.67 4.22 83.63 4.1 83.57 3.94L83.33 3.49C83.24 3.3 83.12 3.11 82.95 2.92C82.85 2.89 82.73 2.87 82.58 2.87C82.54 2.86 82.42 2.85 82.21 2.84C81.85 2.8 81.45 2.79 81.03 2.79Q80.31 2.79 79.74 2.81C79.73 2.91 79.73 3.33 79.73 4.04L79.74 5.09L79.74 5.88C79.84 5.89 79.92 5.9 79.99 5.9C80.7 5.9 81.2 5.89 81.5 5.86C81.8 5.83 81.98 5.79 82.05 5.74C82.13 5.68 82.19 5.59 82.24 5.46C82.28 5.37 82.35 5.06 82.45 4.54L82.53 4.54L82.87 4.54C82.89 4.91 82.89 5.2 82.89 5.39C82.89 5.83 82.89 6.11 82.88 6.23C82.88 6.36 82.88 6.46 82.88 6.53Q82.88 6.7 82.89 7.07C82.91 7.32 82.91 7.5 82.91 7.62L82.91 7.76L82.49 7.76C82.48 7.69 82.45 7.56 82.4 7.35Q82.29 6.76 82.19 6.62C82.14 6.55 82.06 6.49 81.95 6.45C81.88 6.42 81.58 6.41 81.08 6.41C80.48 6.41 80.04 6.42 79.74 6.46C79.73 6.57 79.73 6.64 79.73 6.67C79.73 7.17 79.74 7.58 79.76 7.91L79.74 9.26C79.74 9.42 79.8 9.53 79.9 9.59C80.06 9.67 80.56 9.72 81.39 9.72C81.93 9.72 82.4 9.67 82.78 9.59C83.05 9.52 83.28 9.38 83.48 9.17C83.75 8.89 83.97 8.5 84.15 7.99C84.27 7.98 84.37 7.97 84.45 7.97C84.49 7.97 84.56 7.97 84.64 7.98C84.63 8.08 84.62 8.17 84.61 8.24L84.58 8.43L84.36 9.61L84.25 10.32C84 10.34 83.79 10.34 83.65 10.34C83.42 10.34 82.84 10.32 81.88 10.28C81.2 10.25 80.39 10.24 79.44 10.24C78.97 10.24 78.39 10.26 77.7 10.3L77.45 10.3L76.73 10.32L76.73 9.89C76.81 9.87 76.96 9.85 77.18 9.82Q77.8 9.75 78.04 9.62C78.08 9.5 78.1 9.35 78.1 9.17C78.1 9.1 78.1 8.98 78.09 8.8L78.1 8.61L78.08 6.25L78.09 5.54L78.06 4.54L78.06 3.84L78.01 3.06C78.01 3.04 78.01 3 78 2.94C77.96 2.89 77.9 2.86 77.82 2.85C77.78 2.84 77.72 2.83 77.64 2.81C77.42 2.76 77.2 2.73 76.99 2.72C76.92 2.72 76.83 2.71 76.73 2.7L76.76 2.2ZM50.54 2.65C50.2 2.65 49.89 2.74 49.63 2.91C49.37 3.08 49.17 3.26 49.03 3.47C48.81 3.81 48.65 4.19 48.55 4.61C48.46 5.01 48.41 5.51 48.41 6.1C48.41 6.46 48.43 6.72 48.45 6.87C48.46 6.92 48.47 7.01 48.49 7.13C48.52 7.44 48.57 7.66 48.61 7.8C48.78 8.33 48.9 8.66 48.97 8.79C49.09 9 49.27 9.21 49.5 9.42C49.62 9.53 49.79 9.63 50.01 9.72C50.24 9.81 50.46 9.85 50.69 9.85C51.11 9.85 51.51 9.74 51.87 9.54C52.24 9.32 52.53 8.96 52.75 8.46C52.97 7.96 53.08 7.3 53.08 6.49C53.08 6.16 53.06 5.7 53.02 5.13L52.99 5.01C52.98 4.98 52.96 4.89 52.93 4.76C52.78 4.07 52.5 3.55 52.09 3.19C51.68 2.83 51.16 2.65 50.54 2.65ZM115.91 2.65C115.57 2.65 115.27 2.74 115 2.91C114.74 3.08 114.54 3.26 114.4 3.47C114.18 3.81 114.02 4.19 113.93 4.61Q113.78 5.22 113.78 6.1C113.78 6.46 113.8 6.72 113.82 6.87C113.83 6.92 113.84 7.01 113.86 7.13C113.9 7.44 113.94 7.66 113.98 7.8C114.15 8.33 114.27 8.66 114.34 8.79C114.46 9 114.64 9.21 114.87 9.42C114.99 9.53 115.16 9.63 115.39 9.72C115.61 9.81 115.83 9.85 116.06 9.85C116.49 9.85 116.88 9.74 117.24 9.54C117.61 9.32 117.9 8.96 118.12 8.46C118.34 7.96 118.45 7.3 118.45 6.49C118.45 6.16 118.43 5.7 118.39 5.13L118.36 5.01C118.35 4.98 118.33 4.89 118.3 4.76C118.15 4.07 117.87 3.55 117.46 3.19C117.05 2.83 116.53 2.65 115.91 2.65ZM203.2 2.65C202.86 2.65 202.56 2.74 202.29 2.91C202.03 3.08 201.83 3.26 201.7 3.47C201.47 3.81 201.31 4.19 201.22 4.61C201.12 5.01 201.08 5.51 201.08 6.1C201.08 6.46 201.09 6.72 201.12 6.87C201.12 6.92 201.14 7.01 201.15 7.13C201.19 7.44 201.23 7.66 201.28 7.8C201.45 8.33 201.57 8.66 201.64 8.79C201.75 9 201.93 9.21 202.16 9.42C202.28 9.53 202.45 9.63 202.68 9.72C202.9 9.81 203.13 9.85 203.35 9.85C203.78 9.85 204.17 9.74 204.53 9.54C204.9 9.32 205.19 8.96 205.41 8.46C205.63 7.96 205.75 7.3 205.75 6.49C205.75 6.16 205.72 5.7 205.68 5.13L205.65 5.01C205.64 4.98 205.62 4.89 205.59 4.76C205.45 4.07 205.17 3.55 204.75 3.19C204.34 2.83 203.83 2.65 203.2 2.65ZM275.32 2.65Q274.93 2.65 274.61 2.8Q274.51 2.85 274.42 2.91C274.15 3.08 273.95 3.26 273.82 3.47C273.59 3.81 273.43 4.19 273.34 4.61C273.24 5.01 273.2 5.51 273.2 6.1C273.2 6.46 273.21 6.72 273.24 6.87C273.25 6.92 273.26 7.01 273.27 7.13C273.31 7.44 273.35 7.66 273.4 7.8C273.57 8.33 273.69 8.66 273.76 8.79Q273.94 9.1 274.29 9.42C274.4 9.53 274.57 9.63 274.8 9.72Q275.14 9.85 275.47 9.85C275.9 9.85 276.29 9.74 276.66 9.54C277.02 9.32 277.32 8.96 277.54 8.46Q277.87 7.7 277.87 6.49C277.87 6.16 277.85 5.7 277.8 5.13L277.77 5.01C277.76 4.98 277.74 4.89 277.71 4.76C277.57 4.07 277.29 3.55 276.87 3.19C276.46 2.83 275.95 2.65 275.32 2.65ZM10.28 6.78Q11.66 6.8 11.91 6.8L12.05 6.8C11.94 6.42 11.78 5.99 11.59 5.5C11.4 5 11.25 4.63 11.13 4.37L10.28 6.78ZM297.75 6.78C298.67 6.8 299.21 6.8 299.38 6.8L299.53 6.8C299.41 6.42 299.26 5.99 299.07 5.5C298.88 5 298.72 4.63 298.6 4.37L297.75 6.78ZM232.44 9.59C232.69 9.7 232.93 9.76 233.16 9.76C234.43 9.76 235.07 9.17 235.07 8C235.07 6.77 234.43 6.15 233.14 6.15C232.79 6.15 232.54 6.17 232.37 6.21C232.36 6.37 232.36 6.5 232.36 6.59L232.37 6.98L232.37 7.91L232.38 9.2L232.38 9.3C232.38 9.39 232.4 9.48 232.44 9.59ZM124.42 7.12L126.28 7.12L127.23 7.11C127.36 7.11 127.48 7.12 127.59 7.13C127.6 7.33 127.61 7.48 127.62 7.57L127.63 7.68L127.6 8C127.6 8.05 127.6 8.12 127.6 8.19L127.6 8.3L124.39 8.31C124.39 8.19 124.39 8.1 124.39 8.03C124.39 7.93 124.39 7.81 124.4 7.68C124.4 7.62 124.41 7.57 124.41 7.54L124.4 7.23L124.42 7.12Z" fill="#FFFFFF" fill-opacity="1.000000" fill-rule="evenodd"/>
</svg>
