<svg width="26.666748" height="26.666626" viewBox="0 0 26.6667 26.6666" fill="none" xmlns="http://www.w3.org/2000/svg" xmlns:xlink="http://www.w3.org/1999/xlink">
	<desc>
			Created with Pixso.
	</desc>
	<defs/>
	<path id="Vector" d="M13.33 0C20.69 0 26.66 5.96 26.66 13.33C26.66 20.69 20.69 26.66 13.33 26.66C5.96 26.66 0 20.69 0 13.33C0 5.96 5.96 0 13.33 0ZM13.33 5.33C12.97 5.33 12.64 5.47 12.39 5.72C12.14 5.97 12 6.31 12 6.66L12 13.33C12 13.68 12.14 14.02 12.39 14.27L16.39 18.27C16.64 18.51 16.97 18.65 17.32 18.65C17.67 18.64 18.01 18.5 18.25 18.25C18.5 18.01 18.64 17.67 18.65 17.32C18.65 16.97 18.51 16.64 18.27 16.39L14.66 12.78L14.66 6.66C14.66 6.31 14.52 5.97 14.27 5.72C14.02 5.47 13.68 5.33 13.33 5.33Z" fill="#191919" fill-opacity="0.300000" fill-rule="nonzero"/>
</svg>
