<svg width="25.333252" height="27.430298" viewBox="0 0 25.3333 27.4303" fill="none" xmlns="http://www.w3.org/2000/svg" xmlns:xlink="http://www.w3.org/1999/xlink">
	<desc>
			Created with Pixso.
	</desc>
	<defs/>
	<path id="Vector" d="M5.33 22.09C8.27 22.09 10.66 19.7 10.66 16.76L10.66 3.23L22.66 7.59L22.66 17.5C21.85 17.02 20.93 16.76 20 16.76C17.05 16.76 14.66 19.15 14.66 22.09C14.66 25.03 17.05 27.43 20 27.43C22.94 27.43 25.33 25.03 25.33 22.09L25.33 6.66C25.33 6.39 25.24 6.12 25.09 5.9C24.93 5.67 24.71 5.5 24.45 5.41L9.78 0.08C9.58 0 9.37 -0.02 9.15 0.01C8.94 0.03 8.74 0.11 8.56 0.24C8.39 0.36 8.24 0.52 8.15 0.71C8.05 0.9 7.99 1.11 8 1.33L8 12.17C7.19 11.69 6.27 11.43 5.33 11.43C2.39 11.43 0 13.82 0 16.76C0 19.7 2.39 22.09 5.33 22.09Z" fill="#191919" fill-opacity="0.300000" fill-rule="nonzero"/>
</svg>
