<svg width="26.000732" height="28.000122" viewBox="0 0 26.0007 28.0001" fill="none" xmlns="http://www.w3.org/2000/svg" xmlns:xlink="http://www.w3.org/1999/xlink">
	<desc>
			Created with Pixso.
	</desc>
	<defs/>
	<path id="Vector" d="M17.79 2.03C16.57 0.72 14.87 0 13 0C11.11 0 9.41 0.71 8.2 2.02C6.97 3.34 6.38 5.13 6.52 7.07C6.79 10.89 9.7 14 13 14C16.29 14 19.19 10.89 19.47 7.07C19.62 5.15 19.02 3.36 17.79 2.03ZM24 28L2 28C1.71 28 1.42 27.94 1.16 27.82C0.9 27.7 0.67 27.52 0.48 27.3C0.08 26.81 -0.09 26.15 0.03 25.48C0.56 22.55 2.21 20.1 4.8 18.37C7.09 16.84 10.01 16 13 16C15.98 16 18.9 16.84 21.2 18.37C23.78 20.1 25.43 22.55 25.96 25.48C26.08 26.15 25.91 26.81 25.51 27.3C25.32 27.52 25.09 27.7 24.83 27.82C24.57 27.94 24.28 28 24 28Z" fill="#191919" fill-opacity="0.300000" fill-rule="nonzero"/>
</svg>
